<?xml version="1.0" encoding="UTF-8"?>
<svg version="1.1" xmlns="http://www.w3.org/2000/svg" width="473" height="505">
<path d="M0 0 C0.90301849 0.00248749 1.80603699 0.00497498 2.73641968 0.00753784 C40.26027042 0.16713971 75.7333248 8.6357237 108.9375 26.3125 C109.906875 26.81394531 110.87625 27.31539062 111.875 27.83203125 C124.2618964 34.36755944 135.46082563 42.20712591 146.31542969 51.0078125 C147.87567857 52.26277487 149.45702163 53.4913732 151.0390625 54.71875 C151.95429688 55.4303125 152.86953125 56.141875 153.8125 56.875 C154.61429687 57.49503906 155.41609375 58.11507812 156.2421875 58.75390625 C156.80164063 59.26824219 157.36109375 59.78257813 157.9375 60.3125 C157.9375 60.9725 157.9375 61.6325 157.9375 62.3125 C158.5975 62.3125 159.2575 62.3125 159.9375 62.3125 C159.9375 62.9725 159.9375 63.6325 159.9375 64.3125 C160.9275 64.6425 161.9175 64.9725 162.9375 65.3125 C162.9375 65.9725 162.9375 66.6325 162.9375 67.3125 C163.51628906 67.55871094 164.09507812 67.80492188 164.69140625 68.05859375 C194.33922712 84.60981201 213.76035011 137.09341643 222.9375 167.3125 C223.16163574 168.03131348 223.38577148 168.75012695 223.61669922 169.49072266 C227.03455649 180.54783969 228.55606496 191.85729043 229.9375 203.3125 C230.0715625 204.40304688 230.205625 205.49359375 230.34375 206.6171875 C231.31483189 216.13918491 231.11516095 225.75471867 230.9375 235.3125 C230.92493164 236.03066895 230.91236328 236.74883789 230.89941406 237.48876953 C229.67981435 289.6453244 207.6592055 339.17789972 174.36181641 378.61938477 C173.423225 379.73510835 172.49295337 380.85789212 171.57177734 381.98803711 C169.35583623 384.70342175 167.1635942 387.16969267 164.4375 389.375 C160.43187465 392.70435094 156.84745686 396.36021957 153.25 400.125 C150.9375 402.3125 150.9375 402.3125 148.9375 402.3125 C148.9375 402.9725 148.9375 403.6325 148.9375 404.3125 C147.01393218 405.96170313 145.09102384 407.48942704 143.0625 409 C142.16893799 409.67373657 142.16893799 409.67373657 141.25732422 410.36108398 C139.49032756 411.68692411 137.7156065 413.00161058 135.9375 414.3125 C135.091875 414.93898438 134.24625 415.56546875 133.375 416.2109375 C107.992486 434.47605737 78.91795696 446.84245116 48.4375 453.5 C47.73939209 453.65500977 47.04128418 453.81001953 46.32202148 453.96972656 C31.9104673 456.95243578 17.48494797 457.69225366 2.8125 457.625 C1.96032898 457.62284485 1.10815796 457.6206897 0.23016357 457.61846924 C-42.59976382 457.44529567 -81.73688279 445.60243425 -118.5 423.75 C-119.79732056 422.98103394 -119.79732056 422.98103394 -121.12084961 422.1965332 C-122.29659546 421.47856567 -122.29659546 421.47856567 -123.49609375 420.74609375 C-124.53334595 420.11272095 -124.53334595 420.11272095 -125.59155273 419.46655273 C-126.07696533 419.08571533 -126.56237793 418.70487793 -127.0625 418.3125 C-127.0625 417.6525 -127.0625 416.9925 -127.0625 416.3125 C-127.73539062 416.10109375 -128.40828125 415.8896875 -129.1015625 415.671875 C-133.0564916 413.85615557 -136.1000431 411.32762441 -139.4375 408.5625 C-140.13649414 407.98685303 -140.83548828 407.41120605 -141.55566406 406.81811523 C-187.62331158 368.48539774 -217.49949652 314.88750838 -225.0625 255.3125 C-225.15821289 254.57757324 -225.25392578 253.84264648 -225.35253906 253.08544922 C-229.65327528 215.97425768 -223.69520731 177.92702396 -210.0625 143.3125 C-209.77181641 142.57016113 -209.48113281 141.82782227 -209.18164062 141.06298828 C-199.73484999 117.40951748 -185.27114331 96.76287197 -169.0625 77.3125 C-168.35996094 76.38695313 -167.65742188 75.46140625 -166.93359375 74.5078125 C-166.00740234 73.42113281 -166.00740234 73.42113281 -165.0625 72.3125 C-164.4025 72.3125 -163.7425 72.3125 -163.0625 72.3125 C-163.0625 71.6525 -163.0625 70.9925 -163.0625 70.3125 C-162.4025 70.3125 -161.7425 70.3125 -161.0625 70.3125 C-160.794375 69.673125 -160.52625 69.03375 -160.25 68.375 C-159.0625 66.3125 -159.0625 66.3125 -156.0625 65.3125 C-155.38104798 63.98666239 -154.71667704 62.65200537 -154.0625 61.3125 C-115.45503827 20.17063159 -55.23903808 -0.24375311 0 0 Z M-61.0625 50.3125 C-62.30257812 50.74046875 -63.54265625 51.1684375 -64.8203125 51.609375 C-82.31790936 58.14693866 -98.91247679 67.14588743 -113.39013672 78.95019531 C-114.94227455 80.21456452 -116.51906331 81.4485069 -118.09765625 82.6796875 C-124.86609534 88.02970546 -131.34223326 93.83985775 -137.0625 100.3125 C-137.0625 100.9725 -137.0625 101.6325 -137.0625 102.3125 C-137.7225 102.3125 -138.3825 102.3125 -139.0625 102.3125 C-140.82127384 104.294174 -142.44987511 106.27839372 -144.0625 108.375 C-144.55016846 109.0040625 -145.03783691 109.633125 -145.5402832 110.28125 C-177.22820424 151.66453786 -192.37938109 200.97135461 -186.23535156 253.0546875 C-179.32628298 302.33563196 -153.29798412 347.71652641 -114.0625 378.3125 C-113.17433594 379.02921875 -112.28617187 379.7459375 -111.37109375 380.484375 C-72.54001978 410.94435514 -22.27212858 422.20633719 26.2109375 417.06640625 C56.137737 413.43659485 85.66868064 402.22146111 109.9375 384.3125 C110.49050781 383.91208496 111.04351562 383.51166992 111.61328125 383.09912109 C120.2927875 376.79021769 128.21966396 369.75729348 135.9375 362.3125 C136.50227051 361.77689453 137.06704102 361.24128906 137.64892578 360.68945312 C139.11777542 359.27006694 140.53242886 357.79504898 141.9375 356.3125 C141.9375 355.6525 141.9375 354.9925 141.9375 354.3125 C142.5975 354.3125 143.2575 354.3125 143.9375 354.3125 C145.26822677 352.99890503 145.26822677 352.99890503 146.58984375 351.2265625 C147.11352539 350.55254395 147.63720703 349.87852539 148.17675781 349.18408203 C148.73717773 348.44270996 149.29759766 347.70133789 149.875 346.9375 C150.45475586 346.17163574 151.03451172 345.40577148 151.63183594 344.61669922 C168.75935428 321.62237374 181.15879691 295.48004772 186.9375 267.3125 C186.2775 267.3125 185.6175 267.3125 184.9375 267.3125 C183.36885918 268.8632907 183.36885918 268.8632907 181.75 270.875 C178.75072507 274.42246174 175.59754868 277.67772872 172.22265625 280.8671875 C170.7160036 282.23925739 170.7160036 282.23925739 170.9375 284.3125 C170.36 284.56 169.7825 284.8075 169.1875 285.0625 C166.60810021 286.49549988 164.87628408 288.09674676 162.9375 290.3125 C162.9375 290.9725 162.9375 291.6325 162.9375 292.3125 C162.2775 292.3125 161.6175 292.3125 160.9375 292.3125 C159.62455522 293.61157239 159.62455522 293.61157239 158.21875 295.40625 C154.71633558 299.52503134 150.98861461 303.34877747 147.15625 307.15625 C146.53556641 307.77363037 145.91488281 308.39101074 145.27539062 309.02709961 C142.67705338 311.60726436 140.07399521 314.18264318 137.47119141 316.75830078 C128.12232538 325.96509856 128.12232538 325.96509856 119.32568359 335.69287109 C113.20769605 342.83088189 106.14350486 349.29781046 98.9375 355.3125 C98.2775 355.90804688 97.6175 356.50359375 96.9375 357.1171875 C86.88863829 365.72521977 75.13300478 368.07091599 62.20947266 367.94360352 C60.26985909 367.95433647 60.26985909 367.95433647 58.2910614 367.96528625 C54.7885923 367.98358495 51.28689795 367.97099939 47.78446245 367.95119596 C44.08842845 367.93462026 40.39243636 367.94364861 36.69638062 367.94871521 C30.49147398 367.95321646 24.28687071 367.93749241 18.08203125 367.90942383 C10.95074848 367.87740908 3.82001321 367.8773831 -3.31130826 367.8946386 C-10.22261814 367.9106128 -17.13373101 367.90369894 -24.0450325 367.88670158 C-26.96250408 367.87990314 -29.87981428 367.88078812 -32.79728317 367.88824654 C-67.91452026 367.95893001 -67.91452026 367.95893001 -83.6875 359.3125 C-84.32816406 358.9825 -84.96882813 358.6525 -85.62890625 358.3125 C-118.39585202 341.15843432 -138.31905718 303.36460429 -155.5625 272.25 C-155.8899823 271.66124084 -156.2174646 271.07248169 -156.55487061 270.46588135 C-175.97594347 235.43335286 -175.97594347 235.43335286 -170.6875 216.375 C-164.53512247 198.47717445 -155.37440326 181.72130835 -146.0625 165.3125 C-145.64000977 164.56162109 -145.21751953 163.81074219 -144.78222656 163.03710938 C-128.09752629 133.48596417 -109.37058123 103.11402923 -75.5078125 92.2578125 C-68.40933728 90.3101583 -61.68340359 90.1454476 -54.36572266 90.10717773 C-53.19441803 90.09727814 -52.0231134 90.08737854 -50.8163147 90.07717896 C-46.95308438 90.04564606 -43.08984177 90.02083891 -39.2265625 89.99609375 C-36.54470405 89.97551714 -33.86285112 89.95456723 -31.18099976 89.93312073 C-24.84884888 89.88330089 -18.51667331 89.83832255 -12.18447435 89.79509836 C-4.97283502 89.74563419 2.23875991 89.69075024 9.45035625 89.63541877 C24.27936202 89.52176323 39.10841205 89.41488872 53.9375 89.3125 C52.82258956 90.59444633 51.70657161 91.87542951 50.59008789 93.15600586 C49.96872452 93.86945663 49.34736115 94.58290741 48.70716858 95.31797791 C46.68276598 97.59960045 44.56359269 99.75089623 42.375 101.875 C39.21183365 104.99520314 36.23499329 108.17111932 33.421875 111.609375 C30.79185744 114.6269741 27.89023991 117.37688251 25.03564453 120.18017578 C22.8953793 122.28337581 20.76012745 124.3915855 18.625 126.5 C17.88443359 127.22380859 17.14386719 127.94761719 16.38085938 128.69335938 C15.33188477 129.73266602 15.33188477 129.73266602 14.26171875 130.79296875 C13.62322998 131.42098389 12.98474121 132.04899902 12.3269043 132.69604492 C10.72022074 134.21003305 10.72022074 134.21003305 10.9375 136.3125 C10.34235596 136.57716064 9.74721191 136.84182129 9.1340332 137.11450195 C6.85703945 138.35638351 5.5272085 139.56884807 3.79296875 141.48046875 C3.20523682 142.11968262 2.61750488 142.75889648 2.01196289 143.41748047 C1.38926514 144.10471191 0.76656738 144.79194336 0.125 145.5 C-5.90268538 152.06216364 -12.08817307 158.41535295 -18.48950195 164.61401367 C-19.08980225 165.20287354 -19.69010254 165.7917334 -20.30859375 166.3984375 C-20.84154053 166.9145459 -21.3744873 167.4306543 -21.92358398 167.96240234 C-23.27743175 169.27289812 -23.27743175 169.27289812 -23.0625 171.3125 C-23.7225 171.3125 -24.3825 171.3125 -25.0625 171.3125 C-25.0625 171.9725 -25.0625 172.6325 -25.0625 173.3125 C-25.7225 173.3125 -26.3825 173.3125 -27.0625 173.3125 C-27.0625 173.9725 -27.0625 174.6325 -27.0625 175.3125 C-28.0525 175.6425 -29.0425 175.9725 -30.0625 176.3125 C-31.52373022 177.75635313 -31.52373022 177.75635313 -32.97265625 179.6015625 C-36.14919929 183.34722572 -39.50322156 186.82761439 -42.99609375 190.2734375 C-43.78592148 191.05476044 -43.78592148 191.05476044 -44.59170532 191.85186768 C-46.78806834 194.02116729 -48.98857538 196.18617851 -51.19311523 198.34716797 C-52.81924919 199.94328899 -54.43925895 201.54542323 -56.05859375 203.1484375 C-56.56160507 203.6379892 -57.06461639 204.12754089 -57.58287048 204.63192749 C-58.78111993 205.82133537 -59.92733363 207.06274396 -61.0625 208.3125 C-61.0625 208.9725 -61.0625 209.6325 -61.0625 210.3125 C-61.7225 210.3125 -62.3825 210.3125 -63.0625 210.3125 C-67.85074874 214.93381897 -72.43415711 219.83592613 -73.3125 226.625 C-73.36344095 234.71187506 -68.43387448 239.80034353 -63.0625 245.3125 C-61.19947559 247.00287344 -59.29389238 248.63125138 -57.375 250.2578125 C-52.86977593 254.26076497 -48.68896981 258.60900257 -44.46069336 262.90063477 C-43.10640481 264.26816587 -41.73701779 265.62069331 -40.3671875 266.97265625 C-38.56564971 268.80167513 -36.94652356 270.60446971 -35.375 272.625 C-34.2303125 273.9553125 -34.2303125 273.9553125 -33.0625 275.3125 C-32.4025 275.3125 -31.7425 275.3125 -31.0625 275.3125 C-31.0625 275.9725 -31.0625 276.6325 -31.0625 277.3125 C-30.4025 277.3125 -29.7425 277.3125 -29.0625 277.3125 C-29.0625 277.9725 -29.0625 278.6325 -29.0625 279.3125 C-26.52926428 282.06925652 -23.84108677 284.52309472 -20.9375 286.875 C-18.51298246 288.93056922 -16.92694728 290.79549618 -15.0625 293.3125 C-14.4025 293.3125 -13.7425 293.3125 -13.0625 293.3125 C-13.0625 293.9725 -13.0625 294.6325 -13.0625 295.3125 C-12.4025 295.3125 -11.7425 295.3125 -11.0625 295.3125 C-10.4025 296.6325 -9.7425 297.9525 -9.0625 299.3125 C-8.4025 299.3125 -7.7425 299.3125 -7.0625 299.3125 C-6.69318359 300.16859863 -6.69318359 300.16859863 -6.31640625 301.04199219 C-4.85351003 303.6909281 -3.13604681 305.49798546 -1 307.640625 C-0.20335937 308.43984375 0.59328125 309.2390625 1.4140625 310.0625 C2.24679688 310.8875 3.07953125 311.7125 3.9375 312.5625 C5.18660156 313.82320313 5.18660156 313.82320313 6.4609375 315.109375 C7.25757813 315.9034375 8.05421875 316.6975 8.875 317.515625 C9.97134766 318.60858887 9.97134766 318.60858887 11.08984375 319.72363281 C12.78409142 321.52983721 12.78409142 321.52983721 14.9375 321.3125 C15.185 321.910625 15.4325 322.50875 15.6875 323.125 C17.10596907 325.60732087 18.63014738 326.67578035 20.9375 328.3125 C21.72922607 327.52077393 22.52095215 326.72904785 23.33666992 325.91333008 C30.52156576 318.72843424 37.70646159 311.54353841 44.89135742 304.35864258 C45.40604584 303.84322906 45.92073425 303.32781555 46.45101929 302.79678345 C47.86232352 301.38756536 49.28117731 299.98591993 50.70043945 298.5847168 C53.01754501 296.31106939 53.01754501 296.31106939 55.125 293.5625 C56.9375 291.3125 56.9375 291.3125 58.9375 290.3125 C58.9375 289.6525 58.9375 288.9925 58.9375 288.3125 C59.5975 288.3125 60.2575 288.3125 60.9375 288.3125 C62.57425508 286.69450498 62.57425508 286.69450498 64.25 284.625 C67.02469565 281.36601455 69.87228065 278.30473793 72.9375 275.3125 C74.5430244 273.70969222 76.14708414 272.1054165 77.75 270.5 C79.14583333 269.10416667 80.54166667 267.70833333 81.9375 266.3125 C80.32613069 263.28534428 80.32613069 263.28534428 78.24900818 262.62911987 C75.1286342 262.20170524 72.10356545 262.21829741 68.95336914 262.24658203 C68.25855942 262.25125488 67.56374969 262.25592773 66.84788513 262.26074219 C65.34300726 262.27122285 63.8381433 262.28387827 62.33329964 262.29846573 C59.94985338 262.32052353 57.56648704 262.33457968 55.18296814 262.34616089 C48.40743088 262.37972352 41.63202624 262.42139223 34.85668945 262.48388672 C30.70887525 262.52157346 26.56119656 262.5445687 22.41323662 262.55819321 C20.8347845 262.56623739 19.25635039 262.57983212 17.67799568 262.59912491 C15.46883615 262.62565952 13.26032473 262.63350179 11.05102539 262.63720703 C9.16716881 262.65172409 9.16716881 262.65172409 7.24525452 262.66653442 C1.41020998 262.04199998 -1.82271227 258.81342475 -5.8125 254.75 C-6.98039062 253.57244141 -6.98039062 253.57244141 -8.171875 252.37109375 C-10.0625 250.3125 -10.0625 250.3125 -11.0625 248.3125 C-11.7225 248.3125 -12.3825 248.3125 -13.0625 248.3125 C-13.0625 247.6525 -13.0625 246.9925 -13.0625 246.3125 C-14.71252828 244.95863064 -16.3799387 243.62571858 -18.0625 242.3125 C-18.3925 241.6525 -18.7225 240.9925 -19.0625 240.3125 C-19.7225 240.3125 -20.3825 240.3125 -21.0625 240.3125 C-21.0625 239.6525 -21.0625 238.9925 -21.0625 238.3125 C-22.238125 237.1678125 -22.238125 237.1678125 -23.4375 236 C-27.5684761 231.77066733 -27.5684761 231.77066733 -28.0625 228.3125 C-25.95953244 223.79424296 -22.52503076 220.70116773 -18.64454651 217.66958618 C-16.85197574 216.1319114 -15.39895696 214.4654388 -13.87475586 212.66162109 C-10.09252807 208.28528161 -6.06292602 204.21897321 -1.94140625 200.1640625 C-0.41458646 198.64986771 1.11210261 197.1355411 2.63867188 195.62109375 C5.022476 193.26226775 7.40786703 190.90508711 9.7956543 188.55029297 C12.11677571 186.25918707 14.43179207 183.96205394 16.74609375 181.6640625 C17.46784286 180.95577301 18.18959198 180.24748352 18.93321228 179.51773071 C19.59132401 178.86299774 20.24943573 178.20826477 20.92749023 177.53369141 C21.51038315 176.95825592 22.09327606 176.38282043 22.6938324 175.78994751 C24.15216155 174.37935502 24.15216155 174.37935502 23.9375 172.3125 C24.5975 172.3125 25.2575 172.3125 25.9375 172.3125 C25.9375 171.6525 25.9375 170.9925 25.9375 170.3125 C26.5975 170.3125 27.2575 170.3125 27.9375 170.3125 C27.9375 169.6525 27.9375 168.9925 27.9375 168.3125 C28.50597656 168.08175781 29.07445312 167.85101563 29.66015625 167.61328125 C32.51736975 165.98128795 34.22469372 163.98570933 36.375 161.5 C39.46624947 157.98150467 42.5825907 154.58353657 45.9375 151.3125 C47.43887931 149.81388058 48.93873304 148.31373203 50.4375 146.8125 C52.6953458 144.5546542 54.95315669 142.29695054 57.21875 140.046875 C59.41697907 137.83601243 61.58721843 135.60460865 63.75 133.359375 C65.14562705 131.92688233 66.54146492 130.49459503 67.9375 129.0625 C68.63617188 128.3303125 69.33484375 127.598125 70.0546875 126.84375 C70.73789062 126.14765625 71.42109375 125.4515625 72.125 124.734375 C73.04345703 123.78449707 73.04345703 123.78449707 73.98046875 122.81542969 C76.36626009 120.98322765 77.93646679 120.4583446 80.9375 120.3125 C82.72973633 121.30224609 82.72973633 121.30224609 84.45703125 122.9609375 C85.14361816 123.61030273 85.83020508 124.25966797 86.53759766 124.92871094 C87.32956543 125.71536133 88.1215332 126.50201172 88.9375 127.3125 C89.90529006 128.26089134 90.87323562 129.20912401 91.84130859 130.15722656 C95.126916 133.39322028 98.37669403 136.66413796 101.625 139.9375 C102.75041457 141.06794381 103.87606412 142.19815372 105.00195312 143.328125 C107.07005747 145.40432238 109.13678792 147.4818659 111.2019043 149.56103516 C113.02420715 151.39390915 114.85144254 153.22189233 116.68359375 155.04492188 C118.65218904 157.02545838 120.46039413 159.0470781 122.25 161.1875 C125.28237028 164.70214268 128.56474554 167.66928646 132.1015625 170.6640625 C134.6712317 172.9712974 136.72874852 175.66199823 138.9375 178.3125 C140.94857317 180.12934477 143.00669305 181.88067207 145.07421875 183.6328125 C147.31396468 185.65187067 149.07531562 187.94895828 150.9375 190.3125 C151.5975 190.3125 152.2575 190.3125 152.9375 190.3125 C153.19687851 190.89686829 153.45625702 191.48123657 153.72349548 192.08331299 C155.02702809 194.47689384 156.43518846 196.05757699 158.36157227 197.97949219 C159.05891983 198.67991638 159.7562674 199.38034058 160.4747467 200.10198975 C161.22686935 200.84692688 161.978992 201.59186401 162.75390625 202.359375 C163.52556625 203.13057678 164.29722626 203.90177856 165.0922699 204.6963501 C166.72150138 206.32256367 168.35315946 207.94634926 169.98706055 209.56787109 C172.49912737 212.06163373 175.00305244 214.56335368 177.50585938 217.06640625 C179.08806949 218.64370295 180.67073605 220.22054196 182.25390625 221.796875 C183.38512657 222.92642609 183.38512657 222.92642609 184.53919983 224.07879639 C185.58049294 225.11051971 185.58049294 225.11051971 186.64282227 226.16308594 C187.25634048 226.77279236 187.8698587 227.38249878 188.50196838 228.01068115 C189.73797617 229.4244609 189.73797617 229.4244609 190.9375 229.3125 C192.1412661 203.58757264 185.9018796 177.90358489 175.9375 154.3125 C175.65712891 153.64476562 175.37675781 152.97703125 175.08789062 152.2890625 C168.45712054 136.77335325 159.72487697 122.12865796 148.6796875 109.34375 C146.9375 107.3125 146.9375 107.3125 144.9375 104.3125 C144.2775 104.3125 143.6175 104.3125 142.9375 104.3125 C142.710625 103.76078125 142.48375 103.2090625 142.25 102.640625 C140.55024074 99.62557583 138.38945184 97.50019631 135.9375 95.0625 C135.050625 94.17046875 134.16375 93.2784375 133.25 92.359375 C131.20260897 90.09156927 131.20260897 90.09156927 128.9375 90.3125 C128.9375 89.6525 128.9375 88.9925 128.9375 88.3125 C125.49529716 85.05294466 121.69179549 82.20287777 117.9375 79.3125 C117.40785645 78.90402832 116.87821289 78.49555664 116.33251953 78.07470703 C102.17422866 67.2831435 86.51521907 58.770728 69.9375 52.3125 C68.92647217 51.91853027 68.92647217 51.91853027 67.89501953 51.51660156 C27.05569473 35.99439636 -19.97176795 35.88881446 -61.0625 50.3125 Z " fill="#011D35" transform="translate(234.0625,26.6875)"/>
<path d="M0 0 C1.17130463 -0.00014603 2.34260925 -0.00029205 3.54940796 -0.0004425 C7.41267767 0.00025296 11.27589889 0.0080283 15.13916016 0.01586914 C17.82101523 0.01773462 20.50286764 0.01920712 23.1847229 0.02015686 C29.51690636 0.02326012 35.84907247 0.03145993 42.18124831 0.04150635 C49.39285605 0.05269874 56.60446463 0.05818581 63.8160789 0.06320179 C78.64513567 0.07364341 93.47417886 0.09122334 108.30322266 0.11352539 C106.96263231 2.89491674 105.73662919 4.91684454 103.51025391 7.06665039 C102.9653833 7.60008057 102.4205127 8.13351074 101.85913086 8.68310547 C100.9961438 9.51491333 100.9961438 9.51491333 100.11572266 10.36352539 C95.70111757 14.67963633 91.47690981 19.02684623 87.57275391 23.82055664 C87.15380859 24.24723633 86.73486328 24.67391602 86.30322266 25.11352539 C85.64322266 25.11352539 84.98322266 25.11352539 84.30322266 25.11352539 C84.04581299 25.69690674 83.78840332 26.28028809 83.52319336 26.88134766 C82.19789021 29.30625194 80.75095055 30.89391868 78.78369141 32.82836914 C78.09082031 33.51479492 77.39794922 34.2012207 76.68408203 34.90844727 C75.59836914 35.96902344 75.59836914 35.96902344 74.49072266 37.05102539 C73.77851563 37.75420898 73.06630859 38.45739258 72.33251953 39.18188477 C70.32599431 41.16242353 68.31524147 43.13857008 66.30322266 45.11352539 C62.39032338 48.96793589 58.65089312 52.95258969 54.92822266 56.98852539 C49.10941682 63.27214475 43.12729574 69.36713443 37.01464844 75.36499023 C36.41249512 75.95876465 35.8103418 76.55253906 35.18994141 77.16430664 C34.6558667 77.68677979 34.12179199 78.20925293 33.5715332 78.74755859 C32.18857684 80.10876214 32.18857684 80.10876214 31.30322266 82.11352539 C30.64322266 82.11352539 29.98322266 82.11352539 29.30322266 82.11352539 C29.30322266 82.77352539 29.30322266 83.43352539 29.30322266 84.11352539 C28.64322266 84.11352539 27.98322266 84.11352539 27.30322266 84.11352539 C27.30322266 84.77352539 27.30322266 85.43352539 27.30322266 86.11352539 C25.67454006 87.84138326 24.02076044 89.47794752 22.30322266 91.11352539 C21.26017269 92.14654844 20.21958831 93.18206543 19.18115234 94.21972656 C18.62417664 94.77347458 18.06720093 95.3272226 17.49334717 95.89775085 C14.99976703 98.37792534 12.50886485 100.86078228 10.01806641 103.34375 C8.7018902 104.65485644 7.38482395 105.96506997 6.06689453 107.27441406 C4.15895562 109.17027442 2.25421996 111.06930157 0.35009766 112.96899414 C-0.24152161 113.55545212 -0.83314087 114.1419101 -1.44268799 114.74613953 C-4.43762704 117.64988216 -4.43762704 117.64988216 -6.69677734 121.11352539 C-7.35677734 121.11352539 -8.01677734 121.11352539 -8.69677734 121.11352539 C-8.96361328 121.70907227 -9.23044922 122.30461914 -9.50537109 122.91821289 C-10.71116575 125.14003779 -11.96380239 126.48275381 -13.75927734 128.23852539 C-16.95292912 131.8783491 -17.6728238 134.97478515 -17.86083984 139.76196289 C-17.37818391 146.68003129 -11.93142268 152.19643656 -6.98583984 156.65649414 C-5.70153385 157.7538442 -4.41631327 158.85012442 -3.13037109 159.94555664 C0.11670136 162.83821348 3.21391272 165.86644854 6.30322266 168.92602539 C6.89176025 169.50175293 7.48029785 170.07748047 8.08666992 170.6706543 C9.53221251 172.11256969 10.92289997 173.60905782 12.30322266 175.11352539 C12.30322266 175.77352539 12.30322266 176.43352539 12.30322266 177.11352539 C12.86009766 177.34040039 13.41697266 177.56727539 13.99072266 177.80102539 C16.96481853 179.48902575 19.02331131 181.58029056 21.30322266 184.11352539 C21.30322266 184.77352539 21.30322266 185.43352539 21.30322266 186.11352539 C21.96322266 186.11352539 22.62322266 186.11352539 23.30322266 186.11352539 C23.30322266 186.77352539 23.30322266 187.43352539 23.30322266 188.11352539 C23.96322266 188.11352539 24.62322266 188.11352539 25.30322266 188.11352539 C25.30322266 188.77352539 25.30322266 189.43352539 25.30322266 190.11352539 C26.29322266 190.44352539 27.28322266 190.77352539 28.30322266 191.11352539 C31.84490034 194.36804002 34.91866401 197.95548588 37.97119141 201.66040039 C39.26119175 203.24131722 39.26119175 203.24131722 41.30322266 204.11352539 C41.30322266 204.77352539 41.30322266 205.43352539 41.30322266 206.11352539 C41.96322266 206.11352539 42.62322266 206.11352539 43.30322266 206.11352539 C44.7265625 207.55810547 44.7265625 207.55810547 46.38916016 209.57055664 C50.34461181 214.22143856 54.58824012 218.51088365 58.92822266 222.80102539 C60.03423828 223.90027344 60.03423828 223.90027344 61.16259766 225.02172852 C62.53592749 226.38644428 63.91029463 227.75011775 65.28613281 229.11230469 C65.95177246 229.77270752 66.61741211 230.43311035 67.30322266 231.11352539 C68.09937988 231.89864502 68.89553711 232.68376465 69.71582031 233.49267578 C71.94385024 235.74950737 74.10173972 238.0519775 76.23345947 240.3994751 C83.7369863 248.66056491 91.62219243 256.51570857 99.55322266 264.36352539 C102.1654461 266.94921597 104.77434699 269.53819543 107.38134766 272.12915039 C108.27639008 273.0117453 108.27639008 273.0117453 109.18951416 273.91217041 C110.57966575 275.29384767 111.94440523 276.70102099 113.30322266 278.11352539 C113.30322266 278.44352539 113.30322266 278.77352539 113.30322266 279.11352539 C98.19433591 279.20740783 83.0854627 279.27771794 67.97634888 279.32077408 C60.95923042 279.34130665 53.9422943 279.36924645 46.92529297 279.4152832 C40.14308975 279.45975789 33.36107534 279.48271833 26.57873535 279.49303436 C24.00180089 279.50037834 21.42487579 279.51471828 18.84802246 279.53644562 C1.83118339 279.67411366 -14.01753267 279.50300427 -29.32177734 271.11352539 C-29.96244141 270.78352539 -30.60310547 270.45352539 -31.26318359 270.11352539 C-37.70231175 266.74252988 -43.32413369 262.77623226 -48.63427734 257.80102539 C-49.36420898 257.12910156 -49.36420898 257.12910156 -50.10888672 256.44360352 C-51.65179559 255.01393566 -53.17708247 253.5678394 -54.69677734 252.11352539 C-55.26887939 251.56841309 -55.84098145 251.02330078 -56.43041992 250.46166992 C-60.54858429 246.45239796 -64.10946285 242.24234831 -67.50927734 237.61352539 C-68.02353271 236.9192041 -68.53778809 236.22488281 -69.06762695 235.50952148 C-81.87325246 218.07837996 -93.09688542 199.54860524 -103.38476562 180.53637695 C-104.30308057 178.84055307 -105.22634952 177.14740679 -106.15332031 175.45629883 C-107.65973233 172.70291512 -109.14893504 169.94082341 -110.63427734 167.17602539 C-111.09511719 166.33644287 -111.55595703 165.49686035 -112.03076172 164.63183594 C-118.34336366 152.74193327 -120.9537353 140.37845076 -117.32177734 127.17602539 C-111.16939981 109.27819985 -102.00868061 92.52233374 -92.69677734 76.11352539 C-92.27428711 75.36264648 -91.85179688 74.61176758 -91.41650391 73.83813477 C-74.57069214 44.00163656 -55.3321621 13.01998632 -21.14208984 2.05883789 C-14.02324387 0.10559444 -7.33713484 -0.02396967 0 0 Z " fill="#001D35" transform="translate(179.69677734375,115.886474609375)"/>
<path d="M0 0 C4.36998926 1.53552381 6.96246422 4.63515706 10.14453125 7.91699219 C10.83587158 8.61399231 11.52721191 9.31099243 12.23950195 10.02911377 C14.44658706 12.25855873 16.63938496 14.50147913 18.83203125 16.74511719 C20.30766626 18.24082446 21.78421912 19.73562681 23.26171875 21.22949219 C26.57724459 24.58478263 29.88226491 27.95013905 33.18318176 31.3197937 C34.67821462 32.83883087 36.18307601 34.34698615 37.6940918 35.85009766 C39.46761255 37.62949166 41.06921919 39.4188243 42.64453125 41.37011719 C45.51573821 44.79462966 48.73685611 47.59752678 52.1953125 50.41699219 C53.83203125 51.99511719 53.83203125 51.99511719 54.83203125 54.99511719 C55.82203125 55.32511719 56.81203125 55.65511719 57.83203125 55.99511719 C59.00842494 57.10428838 60.17739596 58.22322986 61.29296875 59.39355469 C62.48212489 60.63100143 63.70187478 61.83909177 64.93359375 63.03417969 C66.02800781 64.09765625 66.02800781 64.09765625 67.14453125 65.18261719 C68.19060547 66.19388672 68.19060547 66.19388672 69.2578125 67.22558594 C70.83203125 68.99511719 70.83203125 68.99511719 70.83203125 70.99511719 C71.49203125 70.99511719 72.15203125 70.99511719 72.83203125 70.99511719 C74.29615784 72.49655151 74.29615784 72.49655151 75.99047852 74.55322266 C79.51619853 78.69794831 83.30407671 82.37789542 87.296875 86.06542969 C88.68879584 87.38629777 90.07871242 88.70928057 91.46679688 90.03417969 C93.61840331 92.08725989 95.77703195 94.12697516 97.97192383 96.13378906 C110.15387498 107.30864077 110.15387498 107.30864077 111.80078125 113.83276367 C111.8271667 117.37053476 111.49548418 120.52594433 110.83203125 123.99511719 C110.70078742 125.43835032 110.57668708 126.88228239 110.46484375 128.32714844 C109.49725751 134.95883567 108.43113747 141.48447042 106.83203125 147.99511719 C106.17203125 147.99511719 105.51203125 147.99511719 104.83203125 147.99511719 C104.50138672 148.81689453 104.50138672 148.81689453 104.1640625 149.65527344 C102.41332996 152.73060713 100.04256059 154.99670439 97.51953125 157.43261719 C97.04580078 157.89732422 96.57207031 158.36203125 96.08398438 158.84082031 C94.66936739 160.22834477 93.25071613 161.61175226 91.83203125 162.99511719 C89.2491551 165.53346099 86.86840918 167.94834556 84.64453125 170.80761719 C84.04640625 171.52949219 83.44828125 172.25136719 82.83203125 172.99511719 C82.17203125 172.99511719 81.51203125 172.99511719 80.83203125 172.99511719 C80.43433784 173.88127716 80.43433784 173.88127716 80.02861023 174.78533936 C78.79434427 177.06471548 77.52580279 178.53698742 75.68676758 180.3515625 C75.04882767 180.98612366 74.41088776 181.62068481 73.75361633 182.2744751 C73.06406357 182.95056824 72.3745108 183.62666138 71.6640625 184.32324219 C70.59450569 185.38499664 70.59450569 185.38499664 69.50334167 186.46820068 C67.22176931 188.73197491 64.93364783 190.9889739 62.64453125 193.24511719 C60.3740925 195.48778225 58.10518196 197.73193878 55.83927917 199.97918701 C54.43074094 201.3756412 53.01953999 202.76941686 51.60517883 204.15997314 C47.69493916 208.03114687 43.98417564 212.00962816 40.4041748 216.18878174 C37.89298575 219.07404612 35.22152582 221.78967179 32.51953125 224.49511719 C31.99552734 225.03136719 31.47152344 225.56761719 30.93164062 226.12011719 C29.60456323 227.45229219 28.22244383 228.72918768 26.83203125 229.99511719 C26.17203125 229.99511719 25.51203125 229.99511719 24.83203125 229.99511719 C24.47625 230.86330078 24.47625 230.86330078 24.11328125 231.74902344 C19.43599629 239.94853213 8.38311712 245.27967597 -0.34545898 247.97705078 C-7.43596423 249.86549728 -14.03658951 251.44734594 -21.16796875 248.99511719 C-27.92720984 244.76962781 -33.33762354 238.77069387 -38.74072266 232.97949219 C-41.31043829 230.22640101 -43.93610476 227.53810748 -46.578125 224.85449219 C-48.23918569 223.13913279 -49.89686841 221.42049443 -51.55078125 219.69824219 C-52.33381622 218.88768372 -53.1168512 218.07712524 -53.9236145 217.24200439 C-54.98260452 216.10127472 -54.98260452 216.10127472 -56.06298828 214.9375 C-56.68899933 214.27131653 -57.31501038 213.60513306 -57.95999146 212.91876221 C-59.16796875 210.99511719 -59.16796875 210.99511719 -59.00759888 208.91557312 C-57.64072602 205.78917377 -55.18885998 203.65205161 -52.77734375 201.31152344 C-51.96490204 200.50544899 -51.96490204 200.50544899 -51.13604736 199.68309021 C-49.40361349 197.96741791 -47.66106783 196.26244607 -45.91796875 194.55761719 C-44.75972853 193.41443376 -43.60216867 192.27056057 -42.4453125 191.12597656 C-40.30595251 189.01106256 -38.16264533 186.90032953 -36.01464844 184.79418945 C-30.49595469 179.46740491 -30.49595469 179.46740491 -25.48046875 173.68261719 C-24.71734375 172.79574219 -23.95421875 171.90886719 -23.16796875 170.99511719 C-22.50796875 170.99511719 -21.84796875 170.99511719 -21.16796875 170.99511719 C-21.16796875 170.33511719 -21.16796875 169.67511719 -21.16796875 168.99511719 C-20.50796875 168.99511719 -19.84796875 168.99511719 -19.16796875 168.99511719 C-18.91015625 168.41246094 -18.65234375 167.82980469 -18.38671875 167.22949219 C-17.06962858 164.81482688 -15.61708491 163.17771541 -13.66796875 161.24511719 C-13.05953125 160.63152344 -12.45109375 160.01792969 -11.82421875 159.38574219 C-10.16796875 157.99511719 -10.16796875 157.99511719 -8.16796875 157.99511719 C-7.91273438 157.41246094 -7.6575 156.82980469 -7.39453125 156.22949219 C-6.05055788 153.78123496 -4.54986579 152.17768471 -2.54296875 150.24511719 C-1.91132813 149.63152344 -1.2796875 149.01792969 -0.62890625 148.38574219 C-0.14679688 147.92683594 0.3353125 147.46792969 0.83203125 146.99511719 C0.0504613 144.8686023 0.0504613 144.8686023 -1.79396057 144.37423706 C-4.941998 143.87150773 -7.96330685 143.90056805 -11.15209961 143.92919922 C-11.84690933 143.93387207 -12.54171906 143.93854492 -13.25758362 143.94335938 C-14.76246149 143.95384004 -16.26732545 143.96649546 -17.77216911 143.98108292 C-20.15561537 144.00314072 -22.53898171 144.01719687 -24.92250061 144.02877808 C-31.69803787 144.06234071 -38.47344251 144.10400942 -45.2487793 144.16650391 C-49.3965935 144.20419064 -53.54427219 144.22718589 -57.69223213 144.24081039 C-59.27068425 144.24885458 -60.84911836 144.26244931 -62.42747307 144.2817421 C-64.6366326 144.30827671 -66.84514402 144.31611898 -69.05444336 144.31982422 C-70.31034775 144.32950226 -71.56625214 144.3391803 -72.86021423 144.34915161 C-78.93955023 143.69847025 -82.30002526 140.13783368 -86.48046875 135.93261719 C-87.36347656 135.05476562 -88.24648437 134.17691406 -89.15625 133.27246094 C-91.16796875 130.99511719 -91.16796875 130.99511719 -91.16796875 128.99511719 C-91.82796875 128.99511719 -92.48796875 128.99511719 -93.16796875 128.99511719 C-93.16796875 128.33511719 -93.16796875 127.67511719 -93.16796875 126.99511719 C-94.09609375 126.62386719 -94.09609375 126.62386719 -95.04296875 126.24511719 C-97.51865562 124.78883079 -98.11921877 123.61699213 -99.16796875 120.99511719 C-99.82796875 120.99511719 -100.48796875 120.99511719 -101.16796875 120.99511719 C-101.16796875 120.33511719 -101.16796875 119.67511719 -101.16796875 118.99511719 C-101.74546875 118.78886719 -102.32296875 118.58261719 -102.91796875 118.37011719 C-106.11060715 116.41906039 -107.47969531 114.30673047 -109.16796875 110.99511719 C-108.37149113 106.91316939 -105.94277976 104.03006672 -103.16796875 100.99511719 C-102.50796875 100.99511719 -101.84796875 100.99511719 -101.16796875 100.99511719 C-100.50796875 99.67511719 -99.84796875 98.35511719 -99.16796875 96.99511719 C-98.50796875 96.99511719 -97.84796875 96.99511719 -97.16796875 96.99511719 C-96.89984375 96.35574219 -96.63171875 95.71636719 -96.35546875 95.05761719 C-95.16796875 92.99511719 -95.16796875 92.99511719 -92.16796875 91.99511719 C-91.46644313 90.6797906 -90.8036044 89.34351978 -90.16796875 87.99511719 C-88.68138123 86.27474976 -88.68138123 86.27474976 -86.92749023 84.54345703 C-86.27018417 83.88952972 -85.61287811 83.23560242 -84.93565369 82.56185913 C-84.22727859 81.86694366 -83.5189035 81.1720282 -82.7890625 80.45605469 C-81.69816063 79.37295517 -81.69816063 79.37295517 -80.58522034 78.26797485 C-78.26333293 75.96389025 -75.93486736 73.66660587 -73.60546875 71.37011719 C-71.27338303 69.06562586 -68.9427593 66.75970327 -66.61500549 64.45083618 C-65.16651337 63.01462563 -63.71535699 61.58109633 -62.26133728 60.15048218 C-61.60718338 59.50285919 -60.95302948 58.85523621 -60.27905273 58.18798828 C-59.7010643 57.61825287 -59.12307587 57.04851746 -58.52757263 56.46151733 C-57.06363497 55.01993005 -57.06363497 55.01993005 -56.16796875 52.99511719 C-55.50796875 52.99511719 -54.84796875 52.99511719 -54.16796875 52.99511719 C-54.16796875 52.33511719 -54.16796875 51.67511719 -54.16796875 50.99511719 C-53.50796875 50.99511719 -52.84796875 50.99511719 -52.16796875 50.99511719 C-52.16796875 50.33511719 -52.16796875 49.67511719 -52.16796875 48.99511719 C-47.86564317 44.22767533 -47.86564317 44.22767533 -44.16796875 42.99511719 C-43.46645723 41.67978308 -42.8027095 40.34394127 -42.16796875 38.99511719 C-40.66796875 37.24511719 -40.66796875 37.24511719 -39.16796875 35.99511719 C-38.50796875 35.99511719 -37.84796875 35.99511719 -37.16796875 35.99511719 C-36.94109375 35.44339844 -36.71421875 34.89167969 -36.48046875 34.32324219 C-34.78070949 31.30819302 -32.61992059 29.1828135 -30.16796875 26.74511719 C-29.28109375 25.85308594 -28.39421875 24.96105469 -27.48046875 24.04199219 C-25.16796875 21.99511719 -25.16796875 21.99511719 -23.16796875 21.99511719 C-22.91724609 21.41914795 -22.66652344 20.84317871 -22.40820312 20.24975586 C-21.00151134 17.69251203 -19.39291182 15.97725483 -17.32421875 13.92089844 C-16.57269531 13.17130859 -15.82117188 12.42171875 -15.046875 11.64941406 C-14.26183594 10.87662109 -13.47679687 10.10382813 -12.66796875 9.30761719 C-11.88292969 8.52322266 -11.09789062 7.73882812 -10.2890625 6.93066406 C-3.29700317 -0.00742568 -3.29700317 -0.00742568 0 0 Z " fill="#FD5E10" transform="translate(314.16796875,146.0048828125)"/>
<path d="M0 0 C0.90301849 0.00248749 1.80603699 0.00497498 2.73641968 0.00753784 C40.26027042 0.16713971 75.7333248 8.6357237 108.9375 26.3125 C109.906875 26.81394531 110.87625 27.31539062 111.875 27.83203125 C124.2618964 34.36755944 135.46082563 42.20712591 146.31542969 51.0078125 C147.87567857 52.26277487 149.45702163 53.4913732 151.0390625 54.71875 C151.95429688 55.4303125 152.86953125 56.141875 153.8125 56.875 C154.61429687 57.49503906 155.41609375 58.11507812 156.2421875 58.75390625 C156.80164063 59.26824219 157.36109375 59.78257813 157.9375 60.3125 C157.9375 60.9725 157.9375 61.6325 157.9375 62.3125 C158.5975 62.3125 159.2575 62.3125 159.9375 62.3125 C159.9375 62.9725 159.9375 63.6325 159.9375 64.3125 C160.9275 64.6425 161.9175 64.9725 162.9375 65.3125 C162.9375 65.9725 162.9375 66.6325 162.9375 67.3125 C163.51628906 67.55871094 164.09507812 67.80492188 164.69140625 68.05859375 C194.33922712 84.60981201 213.76035011 137.09341643 222.9375 167.3125 C223.16163574 168.03131348 223.38577148 168.75012695 223.61669922 169.49072266 C227.03455649 180.54783969 228.55606496 191.85729043 229.9375 203.3125 C230.0715625 204.40304688 230.205625 205.49359375 230.34375 206.6171875 C231.31483189 216.13918491 231.11516095 225.75471867 230.9375 235.3125 C230.92493164 236.03066895 230.91236328 236.74883789 230.89941406 237.48876953 C229.67981435 289.6453244 207.6592055 339.17789972 174.36181641 378.61938477 C173.423225 379.73510835 172.49295337 380.85789212 171.57177734 381.98803711 C169.35583623 384.70342175 167.1635942 387.16969267 164.4375 389.375 C160.43187465 392.70435094 156.84745686 396.36021957 153.25 400.125 C150.9375 402.3125 150.9375 402.3125 148.9375 402.3125 C148.9375 402.9725 148.9375 403.6325 148.9375 404.3125 C147.01393218 405.96170313 145.09102384 407.48942704 143.0625 409 C142.16893799 409.67373657 142.16893799 409.67373657 141.25732422 410.36108398 C139.49032756 411.68692411 137.7156065 413.00161058 135.9375 414.3125 C135.091875 414.93898438 134.24625 415.56546875 133.375 416.2109375 C107.992486 434.47605737 78.91795696 446.84245116 48.4375 453.5 C47.73939209 453.65500977 47.04128418 453.81001953 46.32202148 453.96972656 C31.9104673 456.95243578 17.48494797 457.69225366 2.8125 457.625 C1.96032898 457.62284485 1.10815796 457.6206897 0.23016357 457.61846924 C-42.59976382 457.44529567 -81.73688279 445.60243425 -118.5 423.75 C-119.79732056 422.98103394 -119.79732056 422.98103394 -121.12084961 422.1965332 C-122.29659546 421.47856567 -122.29659546 421.47856567 -123.49609375 420.74609375 C-124.53334595 420.11272095 -124.53334595 420.11272095 -125.59155273 419.46655273 C-126.07696533 419.08571533 -126.56237793 418.70487793 -127.0625 418.3125 C-127.0625 417.6525 -127.0625 416.9925 -127.0625 416.3125 C-127.73539062 416.10109375 -128.40828125 415.8896875 -129.1015625 415.671875 C-133.0564916 413.85615557 -136.1000431 411.32762441 -139.4375 408.5625 C-140.13649414 407.98685303 -140.83548828 407.41120605 -141.55566406 406.81811523 C-187.62331158 368.48539774 -217.49949652 314.88750838 -225.0625 255.3125 C-225.15821289 254.57757324 -225.25392578 253.84264648 -225.35253906 253.08544922 C-229.65327528 215.97425768 -223.69520731 177.92702396 -210.0625 143.3125 C-209.77181641 142.57016113 -209.48113281 141.82782227 -209.18164062 141.06298828 C-199.73484999 117.40951748 -185.27114331 96.76287197 -169.0625 77.3125 C-168.35996094 76.38695313 -167.65742188 75.46140625 -166.93359375 74.5078125 C-166.00740234 73.42113281 -166.00740234 73.42113281 -165.0625 72.3125 C-164.4025 72.3125 -163.7425 72.3125 -163.0625 72.3125 C-163.0625 71.6525 -163.0625 70.9925 -163.0625 70.3125 C-162.4025 70.3125 -161.7425 70.3125 -161.0625 70.3125 C-160.794375 69.673125 -160.52625 69.03375 -160.25 68.375 C-159.0625 66.3125 -159.0625 66.3125 -156.0625 65.3125 C-155.38104798 63.98666239 -154.71667704 62.65200537 -154.0625 61.3125 C-115.45503827 20.17063159 -55.23903808 -0.24375311 0 0 Z M-149.859375 60.23828125 C-150.92849262 61.26155043 -151.9960904 62.28640894 -153.0625 63.3125 C-153.69478516 63.91755371 -154.32707031 64.52260742 -154.97851562 65.14599609 C-163.84555022 73.6750972 -171.92218761 82.27890117 -179.0625 92.3125 C-179.69414062 93.18390625 -180.32578125 94.0553125 -180.9765625 94.953125 C-201.99778644 124.40135941 -215.6295222 156.68523351 -222.0625 192.3125 C-222.19527344 193.03840332 -222.32804688 193.76430664 -222.46484375 194.51220703 C-231.81766026 248.93456492 -217.46247398 310.2243464 -186.0625 355.3125 C-183.16151942 359.39517372 -180.14057673 363.36238804 -177.0625 367.3125 C-176.2572562 368.39575645 -175.45392872 369.48043956 -174.65234375 370.56640625 C-164.31547921 384.38395046 -151.88213945 396.97041071 -138.0625 407.3125 C-137.4226416 407.79638184 -136.7827832 408.28026367 -136.12353516 408.77880859 C-125.53621406 416.75137854 -114.68563227 423.94190546 -103.0625 430.3125 C-101.3609375 431.24835938 -101.3609375 431.24835938 -99.625 432.203125 C-48.83341219 458.79683371 13.40501261 463.04521776 67.921875 446.52734375 C110.03526731 433.29295126 149.25825177 407.9612595 176.64794922 372.95263672 C177.5643065 371.78715239 178.48867044 370.62794377 179.41845703 369.47314453 C188.11004899 358.67758236 195.36255545 347.50680571 201.9375 335.3125 C202.48398193 334.31814941 202.48398193 334.31814941 203.04150391 333.30371094 C217.05298363 307.64777763 224.51660931 279.2143187 227.9375 250.3125 C228.0317627 249.53898193 228.12602539 248.76546387 228.22314453 247.96850586 C231.25347083 220.90969782 228.22691035 193.44833074 220.9375 167.3125 C220.71191406 166.50087402 220.48632812 165.68924805 220.25390625 164.85302734 C216.84470227 152.8461769 212.28019987 141.57936076 206.9375 130.3125 C206.19886719 128.71341797 206.19886719 128.71341797 205.4453125 127.08203125 C195.61384426 106.50260196 181.18362878 86.30238069 164.9375 70.3125 C163.97263672 69.31283203 163.97263672 69.31283203 162.98828125 68.29296875 C162.41464844 67.70128906 161.84101563 67.10960938 161.25 66.5 C160.66863281 65.89542969 160.08726562 65.29085937 159.48828125 64.66796875 C158.02980108 63.09313276 158.02980108 63.09313276 155.9375 63.3125 C155.6075 62.3225 155.2775 61.3325 154.9375 60.3125 C151.47253815 57.07506848 147.67228113 54.23131771 143.9375 51.3125 C143.05964844 50.60867187 142.18179687 49.90484375 141.27734375 49.1796875 C131.7152294 41.72261415 121.35406898 35.49164718 110.9375 29.3125 C110.25252441 28.90580078 109.56754883 28.49910156 108.86181641 28.08007812 C28.19162375 -19.09842392 -82.91333503 -3.01738451 -149.859375 60.23828125 Z " fill="#00040E" transform="translate(234.0625,26.6875)"/>
<path d="M0 0 C0.7223584 0.22558594 1.4447168 0.45117188 2.18896484 0.68359375 C17.19750649 5.47333794 31.32645942 12.20342395 45 20 C45 20.66 45 21.32 45 22 C45.70125 22.2475 46.4025 22.495 47.125 22.75 C52.69966955 25.17376937 57.50330168 29.02836346 62.375 32.625 C63.43460937 33.40101562 64.49421875 34.17703125 65.5859375 34.9765625 C66.78089844 35.97816406 66.78089844 35.97816406 68 37 C68 37.66 68 38.32 68 39 C68.58265625 39.268125 69.1653125 39.53625 69.765625 39.8125 C72.02786601 41.01480991 73.80576318 42.33825913 75.75 44 C76.36359375 44.515625 76.9771875 45.03125 77.609375 45.5625 C79 47 79 47 79 49 C79.66 49 80.32 49 81 49 C81 49.66 81 50.32 81 51 C81.66 51 82.32 51 83 51 C115.14799126 82.03962183 133.87526984 131.02119749 135.15234375 175.1171875 C135.21440117 179.0816463 135.11949134 183.03687047 135 187 C134.98195313 188.18980469 134.96390625 189.37960937 134.9453125 190.60546875 C134.20272704 211.33233942 129.3105134 231.66845197 122 251 C121.61328125 252.06347656 121.2265625 253.12695312 120.828125 254.22265625 C115.23461275 268.63203019 107.62767028 282.91380183 98 295 C97.26652344 295.99515625 96.53304688 296.9903125 95.77734375 298.015625 C86.35216022 310.78774224 75.68705987 322.41136949 63 332 C62.04609375 332.74636719 61.0921875 333.49273437 60.109375 334.26171875 C27.1172212 359.69676926 -11.24697986 373.14767889 -52.80053711 373.24023438 C-55.40056314 373.24986321 -57.99977045 373.28093 -60.59960938 373.3125 C-75.55598282 373.40724473 -90.18847019 371.72364765 -104.625 367.6875 C-105.39875977 367.47585205 -106.17251953 367.2642041 -106.96972656 367.04614258 C-119.57028768 363.51875536 -131.30956878 359.26153903 -142.73046875 352.83203125 C-144.75265164 351.69893236 -146.80287729 350.61266596 -148.890625 349.60546875 C-160.72979367 343.49253116 -171.60823531 335.23526288 -181.49414062 326.35009766 C-183.00877254 324.99213486 -184.54180026 323.65755001 -186.078125 322.32421875 C-220.31055386 292.2424992 -243.65672545 245.01510854 -246.87109375 199.54003906 C-248.86790187 160.19384275 -242.27613056 122.78711103 -221.97216797 88.65820312 C-220.72766811 86.53549016 -219.58387094 84.36444684 -218.4375 82.1875 C-212.72488971 71.95883969 -204.91115639 63.23750455 -197.23583984 54.46533203 C-196.18702655 53.22175689 -195.21833011 51.91130853 -194.26953125 50.58984375 C-193.85058594 50.06519531 -193.43164062 49.54054687 -193 49 C-192.34 49 -191.68 49 -191 49 C-190.73960937 48.40445313 -190.47921875 47.80890625 -190.2109375 47.1953125 C-188.91233375 44.84106957 -187.67520844 43.59648303 -185.625 41.875 C-184.91214844 41.27429688 -184.19929688 40.67359375 -183.46484375 40.0546875 C-182.65144531 39.37664062 -181.83804688 38.69859375 -181 38 C-179.60974609 36.79730469 -179.60974609 36.79730469 -178.19140625 35.5703125 C-172.56933567 30.75975016 -166.88564805 26.42320178 -160.55078125 22.5703125 C-158.28343123 21.17448599 -156.1570627 19.68216952 -154 18.125 C-110.4294531 -10.89623461 -48.97883748 -15.33363561 0 0 Z M-119 4 C-120.24007812 4.42796875 -121.48015625 4.8559375 -122.7578125 5.296875 C-140.25540936 11.83443866 -156.84997679 20.83338743 -171.32763672 32.63769531 C-172.87977455 33.90206452 -174.45656331 35.1360069 -176.03515625 36.3671875 C-182.80359534 41.71720546 -189.27973326 47.52735775 -195 54 C-195 54.66 -195 55.32 -195 56 C-195.66 56 -196.32 56 -197 56 C-198.75877384 57.981674 -200.38737511 59.96589372 -202 62.0625 C-202.48766846 62.6915625 -202.97533691 63.320625 -203.4777832 63.96875 C-235.16570424 105.35203786 -250.31688109 154.65885461 -244.17285156 206.7421875 C-237.26378298 256.02313196 -211.23548412 301.40402641 -172 332 C-171.11183594 332.71671875 -170.22367187 333.4334375 -169.30859375 334.171875 C-130.47751978 364.63185514 -80.20962858 375.89383719 -31.7265625 370.75390625 C-1.799763 367.12409485 27.73118064 355.90896111 52 338 C52.55300781 337.59958496 53.10601562 337.19916992 53.67578125 336.78662109 C62.3552875 330.47771769 70.28216396 323.44479348 78 316 C78.56477051 315.46439453 79.12954102 314.92878906 79.71142578 314.37695312 C81.18027542 312.95756694 82.59492886 311.48254898 84 310 C84 309.34 84 308.68 84 308 C84.66 308 85.32 308 86 308 C87.33072677 306.68640503 87.33072677 306.68640503 88.65234375 304.9140625 C89.17602539 304.24004395 89.69970703 303.56602539 90.23925781 302.87158203 C90.79967773 302.13020996 91.36009766 301.38883789 91.9375 300.625 C92.51725586 299.85913574 93.09701172 299.09327148 93.69433594 298.30419922 C124.52190671 256.91704775 138.65428892 205.60514208 131.48266602 154.31933594 C128.97043238 138.41177768 124.26195575 122.82544179 118 108 C117.71962891 107.33226562 117.43925781 106.66453125 117.15039062 105.9765625 C110.51962054 90.46085325 101.78737697 75.81615796 90.7421875 63.03125 C89 61 89 61 87 58 C86.34 58 85.68 58 85 58 C84.773125 57.44828125 84.54625 56.8965625 84.3125 56.328125 C82.61274074 53.31307583 80.45195184 51.18769631 78 48.75 C77.113125 47.85796875 76.22625 46.9659375 75.3125 46.046875 C73.26510897 43.77906927 73.26510897 43.77906927 71 44 C71 43.34 71 42.68 71 42 C67.55779716 38.74044466 63.75429549 35.89037777 60 33 C59.47035645 32.59152832 58.94071289 32.18305664 58.39501953 31.76220703 C44.23672866 20.9706435 28.57771907 12.458228 12 6 C10.98897217 5.60603027 10.98897217 5.60603027 9.95751953 5.20410156 C-30.88180527 -10.31810364 -77.90926795 -10.42368554 -119 4 Z " fill="#01050F" transform="translate(292,73)"/>
<path d="M0 0 C1.17130463 -0.00014603 2.34260925 -0.00029205 3.54940796 -0.0004425 C7.41267767 0.00025296 11.27589889 0.0080283 15.13916016 0.01586914 C17.82101523 0.01773462 20.50286764 0.01920712 23.1847229 0.02015686 C29.51690636 0.02326012 35.84907247 0.03145993 42.18124831 0.04150635 C49.39285605 0.05269874 56.60446463 0.05818581 63.8160789 0.06320179 C78.64513567 0.07364341 93.47417886 0.09122334 108.30322266 0.11352539 C106.96263231 2.89491674 105.73662919 4.91684454 103.51025391 7.06665039 C102.9653833 7.60008057 102.4205127 8.13351074 101.85913086 8.68310547 C100.9961438 9.51491333 100.9961438 9.51491333 100.11572266 10.36352539 C95.70111757 14.67963633 91.47690981 19.02684623 87.57275391 23.82055664 C87.15380859 24.24723633 86.73486328 24.67391602 86.30322266 25.11352539 C85.64322266 25.11352539 84.98322266 25.11352539 84.30322266 25.11352539 C84.04581299 25.69690674 83.78840332 26.28028809 83.52319336 26.88134766 C82.19789021 29.30625194 80.75095055 30.89391868 78.78369141 32.82836914 C78.09082031 33.51479492 77.39794922 34.2012207 76.68408203 34.90844727 C75.59836914 35.96902344 75.59836914 35.96902344 74.49072266 37.05102539 C73.77851563 37.75420898 73.06630859 38.45739258 72.33251953 39.18188477 C70.32599431 41.16242353 68.31524147 43.13857008 66.30322266 45.11352539 C62.39032338 48.96793589 58.65089312 52.95258969 54.92822266 56.98852539 C49.10941682 63.27214475 43.12729574 69.36713443 37.01464844 75.36499023 C36.41249512 75.95876465 35.8103418 76.55253906 35.18994141 77.16430664 C34.6558667 77.68677979 34.12179199 78.20925293 33.5715332 78.74755859 C32.18857684 80.10876214 32.18857684 80.10876214 31.30322266 82.11352539 C30.64322266 82.11352539 29.98322266 82.11352539 29.30322266 82.11352539 C29.30322266 82.77352539 29.30322266 83.43352539 29.30322266 84.11352539 C28.64322266 84.11352539 27.98322266 84.11352539 27.30322266 84.11352539 C27.30322266 84.77352539 27.30322266 85.43352539 27.30322266 86.11352539 C25.67454006 87.84138326 24.02076044 89.47794752 22.30322266 91.11352539 C21.26017269 92.14654844 20.21958831 93.18206543 19.18115234 94.21972656 C18.62417664 94.77347458 18.06720093 95.3272226 17.49334717 95.89775085 C14.99976703 98.37792534 12.50886485 100.86078228 10.01806641 103.34375 C8.7018902 104.65485644 7.38482395 105.96506997 6.06689453 107.27441406 C4.15895562 109.17027442 2.25421996 111.06930157 0.35009766 112.96899414 C-0.24152161 113.55545212 -0.83314087 114.1419101 -1.44268799 114.74613953 C-4.43762704 117.64988216 -4.43762704 117.64988216 -6.69677734 121.11352539 C-7.35677734 121.11352539 -8.01677734 121.11352539 -8.69677734 121.11352539 C-8.96361328 121.70907227 -9.23044922 122.30461914 -9.50537109 122.91821289 C-10.71116575 125.14003779 -11.96380239 126.48275381 -13.75927734 128.23852539 C-16.95292912 131.8783491 -17.6728238 134.97478515 -17.86083984 139.76196289 C-17.37818391 146.68003129 -11.93142268 152.19643656 -6.98583984 156.65649414 C-5.70153385 157.7538442 -4.41631327 158.85012442 -3.13037109 159.94555664 C0.11670136 162.83821348 3.21391272 165.86644854 6.30322266 168.92602539 C6.89176025 169.50175293 7.48029785 170.07748047 8.08666992 170.6706543 C9.53221251 172.11256969 10.92289997 173.60905782 12.30322266 175.11352539 C12.30322266 175.77352539 12.30322266 176.43352539 12.30322266 177.11352539 C12.86009766 177.34040039 13.41697266 177.56727539 13.99072266 177.80102539 C16.96481853 179.48902575 19.02331131 181.58029056 21.30322266 184.11352539 C21.30322266 184.77352539 21.30322266 185.43352539 21.30322266 186.11352539 C21.96322266 186.11352539 22.62322266 186.11352539 23.30322266 186.11352539 C23.30322266 186.77352539 23.30322266 187.43352539 23.30322266 188.11352539 C23.96322266 188.11352539 24.62322266 188.11352539 25.30322266 188.11352539 C25.30322266 188.77352539 25.30322266 189.43352539 25.30322266 190.11352539 C26.29322266 190.44352539 27.28322266 190.77352539 28.30322266 191.11352539 C31.84490034 194.36804002 34.91866401 197.95548588 37.97119141 201.66040039 C39.26119175 203.24131722 39.26119175 203.24131722 41.30322266 204.11352539 C41.30322266 204.77352539 41.30322266 205.43352539 41.30322266 206.11352539 C41.96322266 206.11352539 42.62322266 206.11352539 43.30322266 206.11352539 C44.7265625 207.55810547 44.7265625 207.55810547 46.38916016 209.57055664 C50.34461181 214.22143856 54.58824012 218.51088365 58.92822266 222.80102539 C60.03423828 223.90027344 60.03423828 223.90027344 61.16259766 225.02172852 C63.71800112 227.56110346 66.2744092 230.09942094 68.84008789 232.62841797 C71.88629609 235.6439882 74.60015846 238.79261795 77.30322266 242.11352539 C74.30322266 242.11352539 74.30322266 242.11352539 72.65478516 240.53930664 C72.08501953 239.84192383 71.51525391 239.14454102 70.92822266 238.42602539 C67.36125123 234.17856256 63.76285704 230.28757913 59.42822266 226.80102539 C57.027961 224.84276737 55.04455292 222.73985621 53.03900146 220.379776 C49.65138458 216.46670927 46.09453664 212.79370791 42.40576172 209.16601562 C41.43122292 208.20089554 41.43122292 208.20089554 40.43699646 207.21627808 C39.04127613 205.83429436 37.64447539 204.45340106 36.24668121 203.07351494 C34.0322435 200.88595934 31.82241537 198.69384611 29.61395264 196.5002594 C23.33996593 190.26879628 17.06324998 184.04016639 10.77050781 177.82763672 C6.90883832 174.01453355 3.05704167 170.19169619 -0.78852081 166.36235237 C-2.25047801 164.91027244 -3.71607862 163.46185091 -5.18541718 162.01724052 C-7.23859274 159.99788484 -9.2789466 157.9663472 -11.31689453 155.93164062 C-11.92161087 155.34287643 -12.52632721 154.75411224 -13.14936829 154.14750671 C-17.32291355 149.94363018 -20.4317226 145.76667126 -20.87646484 139.63696289 C-20.23789756 135.13424487 -19.47171616 131.84901995 -16.69677734 128.11352539 C-16.18115234 127.35040039 -15.66552734 126.58727539 -15.13427734 125.80102539 C-14.65990234 125.24415039 -14.18552734 124.68727539 -13.69677734 124.11352539 C-13.03677734 124.11352539 -12.37677734 124.11352539 -11.69677734 124.11352539 C-11.44226807 123.53231934 -11.18775879 122.95111328 -10.92553711 122.35229492 C-9.56619058 119.87559958 -8.05766638 118.26218094 -6.03662109 116.29321289 C-4.97024414 115.24327148 -4.97024414 115.24327148 -3.88232422 114.17211914 C-3.14046875 113.4515332 -2.39861328 112.73094727 -1.63427734 111.98852539 C-0.16204541 110.55064978 1.30811421 109.11064831 2.77587891 107.66821289 C3.4282251 107.03383301 4.08057129 106.39945312 4.75268555 105.74584961 C6.39208266 104.17893372 6.39208266 104.17893372 7.30322266 102.11352539 C7.96322266 102.11352539 8.62322266 102.11352539 9.30322266 102.11352539 C9.30322266 101.45352539 9.30322266 100.79352539 9.30322266 100.11352539 C10.92560782 98.38120448 12.58895407 96.75296285 14.30322266 95.11352539 C15.80710174 93.62654383 17.3081341 92.13668056 18.80712891 90.64477539 C20.04172852 89.41694336 20.04172852 89.41694336 21.30126953 88.16430664 C22.14753906 87.32254883 22.99380859 86.48079102 23.86572266 85.61352539 C24.71585938 84.77176758 25.56599609 83.93000977 26.44189453 83.06274414 C27.67456055 81.83491211 27.67456055 81.83491211 28.93212891 80.58227539 C30.04696655 79.47529297 30.04696655 79.47529297 31.18432617 78.34594727 C33.37012843 76.10777039 33.37012843 76.10777039 35.40063477 73.47875977 C37.28707107 71.13360451 39.34673633 69.4178651 41.68530273 67.54199219 C43.47461466 65.96220283 44.96127855 64.26789156 46.50244141 62.44555664 C50.86087363 57.4030887 55.58705241 52.77766173 60.34228516 48.11352539 C63.55163865 44.94134587 66.66351872 41.75158627 69.59619141 38.32055664 C74.30132578 32.85683121 79.4858847 27.86048831 84.61572266 22.80102539 C86.59389453 20.84951266 88.56866722 18.89464847 90.54150391 16.93774414 C91.40815674 16.08269287 92.27480957 15.2276416 93.16772461 14.34667969 C95.43287955 12.10770565 95.43287955 12.10770565 97.30322266 9.11352539 C97.96322266 9.11352539 98.62322266 9.11352539 99.30322266 9.11352539 C99.59197266 8.49477539 99.88072266 7.87602539 100.17822266 7.23852539 C101.30322266 5.11352539 101.30322266 5.11352539 103.30322266 3.11352539 C88.43783196 3.01967148 73.57246441 2.94934661 58.70683956 2.9062767 C51.80291213 2.88573818 44.89916984 2.85778668 37.99536133 2.81176758 C31.32337995 2.76731536 24.65162988 2.74433689 17.97949409 2.73401642 C15.44359894 2.72666868 12.90771337 2.71232117 10.37190056 2.69060516 C-15.19512852 2.48051399 -35.33665553 6.53574865 -54.69677734 24.67602539 C-68.0985339 38.68072396 -77.92385012 56.50043114 -87.69677734 73.11352539 C-88.04095703 73.69602051 -88.38513672 74.27851563 -88.73974609 74.87866211 C-93.72713191 83.34623046 -98.27997815 91.97273588 -102.57568359 100.80932617 C-103.37656522 102.45538907 -104.18173279 104.09936948 -104.98974609 105.74194336 C-106.3591402 108.52830724 -107.71681876 111.32011691 -109.07177734 114.11352539 C-109.71542236 115.42172241 -109.71542236 115.42172241 -110.37207031 116.75634766 C-116.15178764 128.7806977 -117.86627957 141.35154596 -113.78662109 154.30493164 C-111.52442654 160.13474484 -108.64842132 165.61375667 -105.69677734 171.11352539 C-105.32053223 171.82589355 -104.94428711 172.53826172 -104.55664062 173.2722168 C-91.79555852 197.38687052 -77.66872061 221.42116172 -60.02490234 242.32836914 C-58.69677734 244.11352539 -58.69677734 244.11352539 -58.69677734 246.11352539 C-57.70677734 246.44352539 -56.71677734 246.77352539 -55.69677734 247.11352539 C-54.33740234 248.53149414 -54.33740234 248.53149414 -52.94677734 250.30102539 C-49.84618426 254.04312049 -46.47810044 257.07713104 -42.69677734 260.11352539 C-42.12572266 260.60723633 -41.55466797 261.10094727 -40.96630859 261.60961914 C-27.40393474 272.74291111 -9.66869209 276.28701629 7.37915039 276.22705078 C8.47257248 276.22719681 9.56599457 276.22734283 10.69255066 276.22749329 C14.29065973 276.2267991 17.88871642 276.21902982 21.48681641 276.21118164 C23.98787915 276.20931571 26.48894226 276.20789263 28.99000549 276.20689392 C34.89008154 276.20347168 40.79013839 276.19559784 46.69020659 276.18554443 C54.07097424 276.17324266 61.45174424 276.16789349 68.83251953 276.16235352 C81.98943189 276.15164054 95.14632194 276.13405492 108.30322266 276.11352539 C98.73322266 266.54352539 89.16322266 256.97352539 79.30322266 247.11352539 C79.63322266 246.45352539 79.96322266 245.79352539 80.30322266 245.11352539 C85.00640245 249.79144329 89.70573073 254.47320401 94.40234375 259.15771484 C96.00203476 260.7523631 97.6026202 262.34611461 99.20410156 263.93896484 C101.49989279 266.2226879 103.79249528 268.50956929 106.08447266 270.79711914 C106.80630737 271.51379257 107.52814209 272.230466 108.27185059 272.96885681 C108.9325354 273.62946609 109.59322021 274.29007538 110.27392578 274.97070312 C111.15328796 275.84673439 111.15328796 275.84673439 112.05041504 276.74046326 C113.30322266 278.11352539 113.30322266 278.11352539 113.30322266 279.11352539 C98.19433591 279.20740783 83.0854627 279.27771794 67.97634888 279.32077408 C60.95923042 279.34130665 53.9422943 279.36924645 46.92529297 279.4152832 C40.14308975 279.45975789 33.36107534 279.48271833 26.57873535 279.49303436 C24.00180089 279.50037834 21.42487579 279.51471828 18.84802246 279.53644562 C1.83118339 279.67411366 -14.01753267 279.50300427 -29.32177734 271.11352539 C-29.96244141 270.78352539 -30.60310547 270.45352539 -31.26318359 270.11352539 C-37.70231175 266.74252988 -43.32413369 262.77623226 -48.63427734 257.80102539 C-49.36420898 257.12910156 -49.36420898 257.12910156 -50.10888672 256.44360352 C-51.65179559 255.01393566 -53.17708247 253.5678394 -54.69677734 252.11352539 C-55.26887939 251.56841309 -55.84098145 251.02330078 -56.43041992 250.46166992 C-60.54858429 246.45239796 -64.10946285 242.24234831 -67.50927734 237.61352539 C-68.02353271 236.9192041 -68.53778809 236.22488281 -69.06762695 235.50952148 C-81.87325246 218.07837996 -93.09688542 199.54860524 -103.38476562 180.53637695 C-104.30308057 178.84055307 -105.22634952 177.14740679 -106.15332031 175.45629883 C-107.65973233 172.70291512 -109.14893504 169.94082341 -110.63427734 167.17602539 C-111.09511719 166.33644287 -111.55595703 165.49686035 -112.03076172 164.63183594 C-118.34336366 152.74193327 -120.9537353 140.37845076 -117.32177734 127.17602539 C-111.16939981 109.27819985 -102.00868061 92.52233374 -92.69677734 76.11352539 C-92.27428711 75.36264648 -91.85179688 74.61176758 -91.41650391 73.83813477 C-74.57069214 44.00163656 -55.3321621 13.01998632 -21.14208984 2.05883789 C-14.02324387 0.10559444 -7.33713484 -0.02396967 0 0 Z " fill="#00050F" transform="translate(179.69677734375,115.886474609375)"/>
<path d="M0 0 C0.99 0.495 0.99 0.495 2 1 C1.56453354 1.43324585 1.12906708 1.8664917 0.68040466 2.31286621 C-3.88159869 6.85261951 -8.43997767 11.39598935 -12.99633789 15.94140625 C-14.69366667 17.63372911 -16.39189477 19.3251505 -18.09106445 21.015625 C-20.54359341 23.45592369 -22.99279096 25.89952506 -25.44140625 28.34375 C-26.19273331 29.08991577 -26.94406036 29.83608154 -27.71815491 30.6048584 C-31.78449265 34.67076969 -35.66037971 38.83234942 -39.41395569 43.18811035 C-41.60175216 45.68743887 -43.92181109 48.03409798 -46.27734375 50.375 C-47.20224609 51.29667969 -48.12714844 52.21835938 -49.08007812 53.16796875 C-50.03249568 54.11203607 -50.98497031 55.05604582 -51.9375 56 C-52.9175531 56.97502386 -53.8973724 57.9502828 -54.87695312 58.92578125 C-57.24902313 61.28616618 -59.6234086 63.64416905 -62 66 C-58.58506042 78.56065578 -45.7776701 90.67859374 -35.20581055 97.78560638 C-23.77771626 104.07726401 -8.14999266 101.9384759 4.37335205 101.20092773 C8.80757951 100.96723823 13.24457768 100.88160354 17.68359375 100.78710938 C22.66311434 100.67756511 27.63772042 100.55566868 32.61279297 100.31349182 C33.35892349 100.27953812 34.10505402 100.24558441 34.87379456 100.21060181 C36.88215441 100.11608437 38.88996394 100.01007026 40.89770508 99.9032135 C44 100 44 100 47 102 C47.52302551 104.2539978 47.52302551 104.2539978 47 107 C45.27447433 109.1929403 43.62149371 111.01153089 41.6315918 112.93603516 C41.06095001 113.50740707 40.49030823 114.07877899 39.90237427 114.66746521 C38.01293225 116.55342395 36.10639283 118.42105118 34.19921875 120.2890625 C32.88252306 121.59642917 31.56692967 122.90490687 30.25239563 124.21444702 C26.7874178 127.66033262 23.30769746 131.09095042 19.82470703 134.51861572 C16.28629822 138.00599368 12.7618837 141.50744951 9.23632812 145.0078125 C3.53940546 150.66074878 -2.16619469 156.30475091 -7.88252258 161.93806458 C-10.26298612 164.28416503 -12.64177624 166.63151967 -15 169 C-14.56435128 164.60633923 -11.61119952 162.22986575 -8.609375 159.31640625 C-7.79693329 158.5103318 -7.79693329 158.5103318 -6.96807861 157.68797302 C-5.23564474 155.97230072 -3.49309908 154.26732888 -1.75 152.5625 C-0.59175978 151.41931658 0.56580008 150.27544338 1.72265625 149.13085938 C3.86201624 147.01594538 6.00532342 144.90521234 8.15332031 142.79907227 C13.67201406 137.47228772 13.67201406 137.47228772 18.6875 131.6875 C19.450625 130.800625 20.21375 129.91375 21 129 C21.66 129 22.32 129 23 129 C23 128.34 23 127.68 23 127 C23.66 127 24.32 127 25 127 C25.38671875 126.12601563 25.38671875 126.12601563 25.78125 125.234375 C27.09834017 122.8197097 28.55088384 121.18259823 30.5 119.25 C31.1084375 118.63640625 31.716875 118.0228125 32.34375 117.390625 C34 116 34 116 36 116 C36.38285156 115.12601563 36.38285156 115.12601563 36.7734375 114.234375 C38.11741087 111.78611777 39.61810296 110.18256752 41.625 108.25 C42.25664062 107.63640625 42.88828125 107.0228125 43.5390625 106.390625 C44.02117187 105.93171875 44.50328125 105.4728125 45 105 C44.21843005 102.87348511 44.21843005 102.87348511 42.37400818 102.37911987 C39.22597075 101.87639054 36.2046619 101.90545087 33.01586914 101.93408203 C32.32105942 101.93875488 31.62624969 101.94342773 30.91038513 101.94824219 C29.40550726 101.95872285 27.9006433 101.97137827 26.39579964 101.98596573 C24.01235338 102.00802353 21.62898704 102.02207968 19.24546814 102.03366089 C12.46993088 102.06722352 5.69452624 102.10889223 -1.08081055 102.17138672 C-5.22862475 102.20907346 -9.37630344 102.2320687 -13.52426338 102.24569321 C-15.1027155 102.25373739 -16.68114961 102.26733212 -18.25950432 102.28662491 C-20.46866385 102.31315952 -22.67717527 102.32100179 -24.88647461 102.32470703 C-26.142379 102.33438507 -27.39828339 102.34406311 -28.69224548 102.35403442 C-34.77158148 101.70335306 -38.13205651 98.14271649 -42.3125 93.9375 C-43.19550781 93.05964844 -44.07851562 92.18179688 -44.98828125 91.27734375 C-47 89 -47 89 -47 87 C-47.66 87 -48.32 87 -49 87 C-49 86.34 -49 85.68 -49 85 C-49.928125 84.62875 -49.928125 84.62875 -50.875 84.25 C-53.35068687 82.79371361 -53.95125002 81.62187494 -55 79 C-55.66 79 -56.32 79 -57 79 C-57 78.34 -57 77.68 -57 77 C-57.5775 76.79375 -58.155 76.5875 -58.75 76.375 C-61.9426384 74.4239432 -63.31172656 72.31161329 -65 69 C-64.20352238 64.9180522 -61.77481101 62.03494954 -59 59 C-58.34 59 -57.68 59 -57 59 C-56.34 57.68 -55.68 56.36 -55 55 C-54.34 55 -53.68 55 -53 55 C-52.731875 54.360625 -52.46375 53.72125 -52.1875 53.0625 C-51 51 -51 51 -48 50 C-47.29847438 48.68467342 -46.63563565 47.34840259 -46 46 C-44.51341248 44.27963257 -44.51341248 44.27963257 -42.75952148 42.54833984 C-42.10221542 41.89441254 -41.44490936 41.24048523 -40.76768494 40.56674194 C-40.05930984 39.87182648 -39.35093475 39.17691101 -38.62109375 38.4609375 C-37.89382584 37.73887115 -37.16655792 37.01680481 -36.41725159 36.27285767 C-34.09536418 33.96877306 -31.76689861 31.67148868 -29.4375 29.375 C-27.10541428 27.07050867 -24.77479055 24.76458608 -22.44703674 22.45571899 C-20.99854462 21.01950844 -19.54738824 19.58597914 -18.09336853 18.15536499 C-17.43921463 17.507742 -16.78506073 16.86011902 -16.11108398 16.19287109 C-15.53309555 15.62313568 -14.95510712 15.05340027 -14.35960388 14.46640015 C-12.89566622 13.02481286 -12.89566622 13.02481286 -12 11 C-11.34 11 -10.68 11 -10 11 C-10 10.34 -10 9.68 -10 9 C-9.34 9 -8.68 9 -8 9 C-8 8.34 -8 7.68 -8 7 C-5.47107279 4.26602464 -3.10404867 2.06936578 0 0 Z " fill="#D42C0B" transform="translate(270,188)"/>
<path d="M0 0 C0.66 0 1.32 0 2 0 C2 0.66 2 1.32 2 2 C1.34 2 0.68 2 0 2 C-0.33064453 2.82177734 -0.33064453 2.82177734 -0.66796875 3.66015625 C-2.41870129 6.73548994 -4.78947066 9.00158721 -7.3125 11.4375 C-7.78623047 11.90220703 -8.25996094 12.36691406 -8.74804688 12.84570312 C-10.16266386 14.23322758 -11.58131512 15.61663507 -13 17 C-15.58287615 19.5383438 -17.96362207 21.95322837 -20.1875 24.8125 C-20.785625 25.534375 -21.38375 26.25625 -22 27 C-22.66 27 -23.32 27 -24 27 C-24.26512894 27.59077332 -24.53025787 28.18154663 -24.80342102 28.79022217 C-26.03768698 31.0695983 -27.30622846 32.54187023 -29.14526367 34.35644531 C-29.78320358 34.99100647 -30.42114349 35.62556763 -31.07841492 36.27935791 C-31.76796768 36.95545105 -32.45752045 37.63154419 -33.16796875 38.328125 C-33.88100662 39.0359613 -34.59404449 39.74379761 -35.32868958 40.4730835 C-37.61026194 42.73685772 -39.89838342 44.99385671 -42.1875 47.25 C-44.45793875 49.49266506 -46.72684929 51.73682159 -48.99275208 53.98406982 C-50.40129031 55.38052401 -51.81249126 56.77429967 -53.22685242 58.16485596 C-57.13709209 62.03602968 -60.84785561 66.01451098 -64.42785645 70.19366455 C-66.9390455 73.07892893 -69.61050543 75.79455461 -72.3125 78.5 C-72.83650391 79.03625 -73.36050781 79.5725 -73.90039062 80.125 C-75.22746802 81.45717501 -76.60958742 82.73407049 -78 84 C-78.66 84 -79.32 84 -80 84 C-80.35578125 84.86818359 -80.35578125 84.86818359 -80.71875 85.75390625 C-85.47468354 94.09128973 -96.51046293 99.09519677 -105.2421875 102.125 C-109.58899934 103.13714745 -113.50029415 103.22385806 -117.9375 103.125 C-118.71673828 103.11597656 -119.49597656 103.10695313 -120.29882812 103.09765625 C-122.19935447 103.07433691 -124.09972008 103.03847586 -126 103 C-126 102.67 -126 102.34 -126 102 C-124.76765625 101.91363281 -123.5353125 101.82726562 -122.265625 101.73828125 C-101.95002408 100.10579596 -90.31153243 92.70446869 -76.10546875 78.30078125 C-75.31022293 77.50270554 -74.51497711 76.70462982 -73.69563293 75.88237 C-71.18812448 73.36379644 -68.68769922 70.83832741 -66.1875 68.3125 C-64.49330792 66.60825722 -62.79865013 64.90447727 -61.10351562 63.20117188 C-57.33279992 59.41071773 -53.5669322 55.61551446 -49.80436707 51.81697083 C-48.25788271 50.25968406 -46.70500424 48.70929932 -45.1484375 47.16210938 C-41.67333597 43.66489357 -38.46548741 39.92859666 -35.20703125 36.23046875 C-34.11455078 35.12638672 -34.11455078 35.12638672 -33 34 C-32.34 34 -31.68 34 -31 34 C-30.76732422 33.44062744 -30.53464844 32.88125488 -30.29492188 32.30493164 C-28.66849301 29.40992505 -26.65269236 27.44591915 -24.28125 25.12109375 C-22.88326172 23.73954102 -22.88326172 23.73954102 -21.45703125 22.33007812 C-20.47170257 21.36552938 -19.48602171 20.40134027 -18.5 19.4375 C-16.56966095 17.54361235 -14.6435645 15.64561677 -12.71875 13.74609375 C-11.86216797 12.90747803 -11.00558594 12.0688623 -10.12304688 11.20483398 C-7.86615905 8.99158841 -7.86615905 8.99158841 -6 6 C-5.34 6 -4.68 6 -4 6 C-3.71125 5.38125 -3.4225 4.7625 -3.125 4.125 C-2 2 -2 2 0 0 Z " fill="#CE3712" transform="translate(419,292)"/>
<path d="M0 0 C4.36998926 1.53552381 6.96246422 4.63515706 10.14453125 7.91699219 C10.83587158 8.61399231 11.52721191 9.31099243 12.23950195 10.02911377 C14.44658706 12.25855873 16.63938496 14.50147913 18.83203125 16.74511719 C20.30766626 18.24082446 21.78421912 19.73562681 23.26171875 21.22949219 C26.57742658 24.58496681 29.88262243 27.95051381 33.18373108 31.32034302 C34.67567288 32.83624749 36.17739594 34.34131234 37.68530273 35.84130859 C39.53923199 37.70135226 41.23155861 39.59119792 42.89453125 41.62011719 C45.00905947 44.12804601 47.06486944 46.18581908 49.83203125 47.99511719 C49.50203125 48.98511719 49.17203125 49.97511719 48.83203125 50.99511719 C32.99203125 35.15511719 17.15203125 19.31511719 0.83203125 2.99511719 C-4.99314263 4.93684182 -6.56921154 5.91397397 -10.60546875 10.12011719 C-11.49105469 11.03019531 -12.37664062 11.94027344 -13.2890625 12.87792969 C-15.40721258 15.13443655 -17.43740965 17.45496269 -19.45703125 19.79980469 C-23.46530447 24.4102778 -27.76322857 28.70124815 -32.10546875 32.99511719 C-33.27432617 34.15720703 -33.27432617 34.15720703 -34.46679688 35.34277344 C-36.36489295 37.22922476 -38.26530024 39.11327964 -40.16796875 40.99511719 C-40.82796875 40.33511719 -41.48796875 39.67511719 -42.16796875 38.99511719 C-40.79296875 37.49511719 -40.79296875 37.49511719 -39.16796875 35.99511719 C-38.50796875 35.99511719 -37.84796875 35.99511719 -37.16796875 35.99511719 C-36.94109375 35.44339844 -36.71421875 34.89167969 -36.48046875 34.32324219 C-34.78070949 31.30819302 -32.61992059 29.1828135 -30.16796875 26.74511719 C-28.83765625 25.40707031 -28.83765625 25.40707031 -27.48046875 24.04199219 C-25.16796875 21.99511719 -25.16796875 21.99511719 -23.16796875 21.99511719 C-22.91724609 21.41914795 -22.66652344 20.84317871 -22.40820312 20.24975586 C-21.00151134 17.69251203 -19.39291182 15.97725483 -17.32421875 13.92089844 C-16.57269531 13.17130859 -15.82117188 12.42171875 -15.046875 11.64941406 C-14.26183594 10.87662109 -13.47679687 10.10382813 -12.66796875 9.30761719 C-11.88292969 8.52322266 -11.09789062 7.73882812 -10.2890625 6.93066406 C-3.29700317 -0.00742568 -3.29700317 -0.00742568 0 0 Z " fill="#D43A10" transform="translate(314.16796875,146.0048828125)"/>
<path d="M0 0 C4.74042214 3.95952624 9.23120477 8.08247977 13.58984375 12.45703125 C14.47392662 13.33967903 14.47392662 13.33967903 15.37586975 14.24015808 C16.60638107 15.46999481 17.83565434 16.70107144 19.0637207 17.93334961 C20.95344748 19.8284932 22.84853271 21.71816277 24.74414062 23.60742188 C25.94302962 24.80697065 27.14160892 26.00682903 28.33984375 27.20703125 C28.90847641 27.77363968 29.47710907 28.34024811 30.06297302 28.92402649 C34 32.88501282 34 32.88501282 34 34 C-18.47 33.505 -18.47 33.505 -72 33 C-72 32.67 -72 32.34 -72 32 C-38.67 31.67 -5.34 31.34 29 31 C19.43 21.43 9.86 11.86 0 2 C0 1.34 0 0.68 0 0 Z " fill="#000B1B" transform="translate(259,361)"/>
<path d="M0 0 C0.495 1.485 0.495 1.485 1 3 C-18 22 -37 41 -56 60 C-55.56435128 55.60633923 -52.61119952 53.22986575 -49.609375 50.31640625 C-49.06774719 49.77902328 -48.52611938 49.24164032 -47.96807861 48.68797302 C-46.23564474 46.97230072 -44.49309908 45.26732888 -42.75 43.5625 C-41.59175978 42.41931658 -40.43419992 41.27544338 -39.27734375 40.13085938 C-37.13798376 38.01594538 -34.99467658 35.90521234 -32.84667969 33.79907227 C-27.32798594 28.47228772 -27.32798594 28.47228772 -22.3125 22.6875 C-21.549375 21.800625 -20.78625 20.91375 -20 20 C-19.34 20 -18.68 20 -18 20 C-18 19.34 -18 18.68 -18 18 C-17.34 18 -16.68 18 -16 18 C-15.61328125 17.12601562 -15.61328125 17.12601562 -15.21875 16.234375 C-13.90165983 13.8197097 -12.44911616 12.18259823 -10.5 10.25 C-9.58734375 9.32960938 -9.58734375 9.32960938 -8.65625 8.390625 C-7 7 -7 7 -5 7 C-4.731875 6.401875 -4.46375 5.80375 -4.1875 5.1875 C-3.01506533 3.02775192 -1.80630718 1.64209744 0 0 Z " fill="#BF3813" transform="translate(311,297)"/>
<path d="M0 0 C2 1.375 2 1.375 4 3 C4 3.66 4 4.32 4 5 C4.99 5.33 5.98 5.66 7 6 C8.17639369 7.1091712 9.34536471 8.22811267 10.4609375 9.3984375 C11.65009364 10.63588424 12.86984353 11.84397458 14.1015625 13.0390625 C14.83117187 13.74804688 15.56078125 14.45703125 16.3125 15.1875 C17.00988281 15.86167969 17.70726562 16.53585938 18.42578125 17.23046875 C20 19 20 19 20 21 C20.66 21 21.32 21 22 21 C23.46412659 22.48413086 23.46412659 22.48413086 25.15844727 24.52734375 C28.74496303 28.74272851 32.53717439 32.66640875 36.46484375 36.5625 C37.14301651 37.23925781 37.82118927 37.91601562 38.51991272 38.61328125 C40.65674305 40.74457675 42.79704823 42.87234218 44.9375 45 C46.39932123 46.45679779 47.86091187 47.91382701 49.32226562 49.37109375 C52.878854 52.91673973 56.43856016 56.45922739 60 60 C56.34981292 60 55.5222974 58.8849384 53.00944519 56.41603088 C52.48723892 55.88775192 51.96503265 55.35947296 51.42700195 54.81518555 C50.87061035 54.2640509 50.31421875 53.71291626 49.7409668 53.14508057 C47.89910507 51.31645081 46.06846602 49.47703008 44.23828125 47.63671875 C42.96505412 46.36551143 41.69138186 45.09474982 40.4172821 43.82441711 C37.74682737 41.15839008 35.08188669 38.48699948 32.4206543 35.81176758 C29.00410575 32.37812714 25.57426817 28.95812832 22.14019489 25.54202557 C19.50715923 22.91981556 16.88129269 20.29052041 14.25755882 17.65900612 C12.99543874 16.39488067 11.731075 15.1329913 10.46447182 13.87335777 C8.69723534 12.11371555 6.93986208 10.34478607 5.18481445 8.57299805 C4.65653549 8.05079178 4.12825653 7.52858551 3.58396912 6.99055481 C0 3.34279373 0 3.34279373 0 0 Z " fill="#C03613" transform="translate(365,196)"/>
<path d="M0 0 C1.32 0.66 2.64 1.32 4 2 C4 2.33 4 2.66 4 3 C-33.29 3 -70.58 3 -109 3 C-109 2.67 -109 2.34 -109 2 C-108.4443187 1.99576806 -107.88863741 1.99153612 -107.31611729 1.98717594 C-93.81318199 1.88400112 -80.31030076 1.77532023 -66.80745792 1.66066074 C-60.27766207 1.60538076 -53.74786178 1.55195279 -47.21801758 1.50268555 C-40.92214856 1.45511668 -34.62633598 1.40277687 -28.33053398 1.34705925 C-25.92266677 1.3266017 -23.51478405 1.30789439 -21.10688972 1.29092598 C-17.74706515 1.26695699 -14.38734839 1.23689253 -11.02758789 1.20532227 C-10.02130341 1.1995668 -9.01501892 1.19381134 -7.97824097 1.18788147 C-7.06813766 1.17809265 -6.15803436 1.16830383 -5.22035217 1.15821838 C-4.02709116 1.14853956 -4.02709116 1.14853956 -2.80972385 1.1386652 C-0.97888977 1.19589589 -0.97888977 1.19589589 0 0 Z " fill="#0B2137" transform="translate(285,390)"/>
<path d="M0 0 C5.27414023 4.35689845 9.99028132 9.02899329 14.66796875 14.0234375 C16.99907076 16.43104808 16.99907076 16.43104808 21 16 C21.66 16.66 22.32 17.32 23 18 C24.65261839 19.02304948 26.31791365 20.02616054 28 21 C27.34 21.33 26.68 21.66 26 22 C26 22.66 26 23.32 26 24 C26.66 24 27.32 24 28 24 C28.33 25.98 28.66 27.96 29 30 C23.0306274 25.07715135 17.53790055 19.72409764 12.07250977 14.2578125 C10.54655166 12.73407487 9.01271855 11.2185557 7.47851562 9.703125 C6.50732543 8.7348633 5.53660442 7.76613071 4.56640625 6.796875 C3.68927979 5.92385742 2.81215332 5.05083984 1.90844727 4.15136719 C0 2 0 2 0 0 Z " fill="#E9804C" transform="translate(256,356)"/>
<path d="M0 0 C0.66 0 1.32 0 2 0 C2.33 1.32 2.66 2.64 3 4 C6.32812571 3.42618522 7.69842455 2.40619252 10 0 C10.66 0 11.32 0 12 0 C11.43628586 3.26954202 10.50037734 4.82575883 8 7 C8.99 7.66 9.98 8.32 11 9 C7.92928215 9.8286064 5.17927381 10.31189078 2 10 C-0.82544316 8.04471143 -2.90159614 5.705659 -5 3 C-4.360625 2.690625 -3.72125 2.38125 -3.0625 2.0625 C-1.06389179 1.1654837 -1.06389179 1.1654837 0 0 Z " fill="#F95E14" transform="translate(290,384)"/>
<path d="M0 0 C4.74042214 3.95952624 9.23120477 8.08247977 13.58984375 12.45703125 C14.17923233 13.0454631 14.76862091 13.63389496 15.37586975 14.24015808 C16.60638107 15.46999481 17.83565434 16.70107144 19.0637207 17.93334961 C20.95344748 19.8284932 22.84853271 21.71816277 24.74414062 23.60742188 C25.94302962 24.80697065 27.14160892 26.00682903 28.33984375 27.20703125 C28.90847641 27.77363968 29.47710907 28.34024811 30.06297302 28.92402649 C34 32.88501282 34 32.88501282 34 34 C30.04 34 26.08 34 22 34 C26 32 26 32 29 31 C28.12150391 30.13197754 27.24300781 29.26395508 26.33789062 28.36962891 C23.09019137 25.15803899 19.84904138 21.93990878 16.60986328 18.71972656 C15.20507692 17.32501851 13.79850363 15.93210796 12.39013672 14.54101562 C10.36998287 12.54502969 8.35627344 10.5427381 6.34375 8.5390625 C5.7094104 7.91504547 5.0750708 7.29102844 4.42150879 6.64810181 C2.90923861 5.1362251 1.4490171 3.57260348 0 2 C0 1.34 0 0.68 0 0 Z " fill="#0B0611" transform="translate(259,361)"/>
<path d="M0 0 C0.66 0.33 1.32 0.66 2 1 C0.625 2.5 0.625 2.5 -1 4 C-1.66 4 -2.32 4 -3 4 C-3 4.66 -3 5.32 -3 6 C-7.47058824 10 -7.47058824 10 -10 10 C-10.2475 10.5775 -10.495 11.155 -10.75 11.75 C-13.56609263 16.81896674 -18.61862429 20.30782946 -23 24 C-23.66 23.67 -24.32 23.34 -25 23 C-9.1556348 6.74285575 -9.1556348 6.74285575 0 0 Z " fill="#0A1C2E" transform="translate(99,74)"/>
<path d="M0 0 C2 1.375 2 1.375 4 3 C4 3.66 4 4.32 4 5 C4.99 5.33 5.98 5.66 7 6 C8.17839741 7.11106041 9.3489925 8.23238813 10.46484375 9.40625 C11.63630645 10.62242502 12.84383896 11.80396 14.06640625 12.96875 C14.78699219 13.6596875 15.50757813 14.350625 16.25 15.0625 C16.93578125 15.71347656 17.6215625 16.36445313 18.328125 17.03515625 C20.10105118 19.11875875 20.44809893 20.38051401 21 23 C15.98708084 18.78708338 11.21183489 14.42247544 6.5625 9.8125 C5.92634766 9.19697266 5.29019531 8.58144531 4.63476562 7.94726562 C4.03470703 7.35236328 3.43464844 6.75746094 2.81640625 6.14453125 C2.27443604 5.61190674 1.73246582 5.07928223 1.17407227 4.53051758 C0 3 0 3 0 0 Z " fill="#D83E12" transform="translate(365,196)"/>
<path d="M0 0 C0.33 0.99 0.66 1.98 1 3 C-1.78358481 5.84137242 -4.57815727 8.67168155 -7.375 11.5 C-8.1690625 12.31082031 -8.963125 13.12164062 -9.78125 13.95703125 C-10.92207031 15.10751953 -10.92207031 15.10751953 -12.0859375 16.28125 C-13.1385376 17.34956055 -13.1385376 17.34956055 -14.21240234 18.43945312 C-16 20 -16 20 -18 20 C-18 19.34 -18 18.68 -18 18 C-17.34 18 -16.68 18 -16 18 C-15.61328125 17.12601562 -15.61328125 17.12601562 -15.21875 16.234375 C-13.90165983 13.8197097 -12.44911616 12.18259823 -10.5 10.25 C-9.8915625 9.63640625 -9.283125 9.0228125 -8.65625 8.390625 C-7 7 -7 7 -5 7 C-4.731875 6.401875 -4.46375 5.80375 -4.1875 5.1875 C-3.01506533 3.02775192 -1.80630718 1.64209744 0 0 Z " fill="#D14118" transform="translate(311,297)"/>
<path d="M0 0 C0.33 0 0.66 0 1 0 C1.36222481 11.93329505 0.48540895 23.54794203 -3 35 C-3.66 34.67 -4.32 34.34 -5 34 C-4.80664062 33.13761719 -4.61328125 32.27523437 -4.4140625 31.38671875 C-2.19311089 20.9746337 -0.96955119 10.59662423 0 0 Z " fill="#DD7A3E" transform="translate(424,257)"/>
<path d="M0 0 C3.83935044 0.54123002 5.18131936 2.08838051 7.625 5 C10.81838401 8.37414159 12.85430609 9.57886061 17.5 10 C18.99956471 10.03613409 20.50080559 10.04915392 22 10 C18.37516872 12.41655419 16.7676271 12.47876589 12.5625 11.953125 C7.24625468 9.97574107 3.55548205 5.27548572 0 1 C0 0.67 0 0.34 0 0 Z " fill="#C9360E" transform="translate(225,278)"/>
<path d="M0 0 C0.66 0 1.32 0 2 0 C2 0.66 2 1.32 2 2 C1.34 2 0.68 2 0 2 C-0.21785156 2.54527344 -0.43570312 3.09054687 -0.66015625 3.65234375 C-2.44343343 6.77697811 -4.87292749 9.08486215 -7.4375 11.5625 C-7.92798828 12.04396484 -8.41847656 12.52542969 -8.92382812 13.02148438 C-10.27911665 14.35116691 -11.63938123 15.67577222 -13 17 C-14.00211639 17.99787912 -15.00338407 18.99662735 -16 20 C-16 17 -16 17 -14.3203125 15.0625 C-13.59585937 14.381875 -12.87140625 13.70125 -12.125 13 C-9.69915419 10.704576 -7.86499904 8.79749856 -6 6 C-5.34 6 -4.68 6 -4 6 C-3.566875 5.071875 -3.566875 5.071875 -3.125 4.125 C-2 2 -2 2 0 0 Z " fill="#C0340E" transform="translate(419,292)"/>
<path d="M0 0 C-0.556875 0.268125 -1.11375 0.53625 -1.6875 0.8125 C-6.84518656 3.46104175 -10.78510992 6.52030732 -14.8125 10.6875 C-15.31458984 11.19861328 -15.81667969 11.70972656 -16.33398438 12.23632812 C-17.56063509 13.48634362 -18.78097491 14.7425468 -20 16 C-20.66 15.67 -21.32 15.34 -22 15 C-19.5457323 12.51677995 -17.08591435 10.03913187 -14.625 7.5625 C-13.92632812 6.85544922 -13.22765625 6.14839844 -12.5078125 5.41992188 C-11.8375 4.74638672 -11.1671875 4.07285156 -10.4765625 3.37890625 C-9.85861816 2.7557251 -9.24067383 2.13254395 -8.60400391 1.49047852 C-5.53823899 -1.35830304 -3.92383707 -0.92932983 0 0 Z " fill="#C43813" transform="translate(317,147)"/>
<path d="M0 0 C-0.66 1.98 -1.32 3.96 -2 6 C-3.32 6 -4.64 6 -6 6 C-5.72965366 8.43717258 -5.72965366 8.43717258 -5 11 C-4.01 11.66 -3.02 12.32 -2 13 C-2.99 13.33 -3.98 13.66 -5 14 C-7.0625 12.25 -7.0625 12.25 -9 10 C-8.66705345 6.69717024 -7.40530684 5.0183411 -5.0625 2.75 C-4.53785156 2.22921875 -4.01320313 1.7084375 -3.47265625 1.171875 C-2 0 -2 0 0 0 Z " fill="#F95613" transform="translate(266,347)"/>
<path d="M0 0 C0 4.01981542 -1.68180409 6.82525035 -4 10 C-6.1875 11.3125 -6.1875 11.3125 -8 12 C-8.33 12.66 -8.66 13.32 -9 14 C-9.99 13.67 -10.98 13.34 -12 13 C-8.04 8.71 -4.08 4.42 0 0 Z " fill="#091C2C" transform="translate(73,98)"/>
<path d="M0 0 C-0.99 1.485 -0.99 1.485 -2 3 C-0.68 3.33 0.64 3.66 2 4 C2.33 5.32 2.66 6.64 3 8 C-1.2742558 6.4169423 -3.26531794 3.49431596 -6 0 C-2.25 -1.125 -2.25 -1.125 0 0 Z " fill="#EC7C44" transform="translate(291,386)"/>
<path d="M0 0 C0.66 0.33 1.32 0.66 2 1 C-1.63 4.63 -5.26 8.26 -9 12 C-9.99 11.67 -10.98 11.34 -12 11 C-11.34 11 -10.68 11 -10 11 C-10 10.34 -10 9.68 -10 9 C-9.34 9 -8.68 9 -8 9 C-8 8.34 -8 7.68 -8 7 C-5.47107279 4.26602464 -3.10404867 2.06936578 0 0 Z " fill="#DF370E" transform="translate(270,188)"/>
<path d="M0 0 C0.99 0.33 1.98 0.66 3 1 C0.69 3.31 -1.62 5.62 -4 8 C-4.33 7.01 -4.66 6.02 -5 5 C-3.35 3.35 -1.7 1.7 0 0 Z " fill="#D63F1A" transform="translate(352,361)"/>
<path d="M0 0 C0.99 0.33 1.98 0.66 3 1 C0.36 3.64 -2.28 6.28 -5 9 C-5 4.61031544 -2.87194899 3.23094261 0 0 Z " fill="#DA390D" transform="translate(291,317)"/>
<path d="M0 0 C0.99 0.33 1.98 0.66 3 1 C0.69 3.31 -1.62 5.62 -4 8 C-4.66 7.34 -5.32 6.68 -6 6 C-5.38125 5.7525 -4.7625 5.505 -4.125 5.25 C-1.64931313 3.79371361 -1.04874998 2.62187494 0 0 Z " fill="#DA2D0B" transform="translate(224,234)"/>
<path d="M0 0 C0.99 0.66 1.98 1.32 3 2 C-1.455 4.97 -1.455 4.97 -6 8 C-5.67 6.68 -5.34 5.36 -5 4 C-4.01 3.67 -3.02 3.34 -2 3 C-1.34 2.01 -0.68 1.02 0 0 Z " fill="#091C2C" transform="translate(373,432)"/>
<path d="M0 0 C0.99 0.33 1.98 0.66 3 1 C1.35 2.65 -0.3 4.3 -2 6 C-2.99 5.67 -3.98 5.34 -5 5 C-3.35 3.35 -1.7 1.7 0 0 Z " fill="#061A2C" transform="translate(221,181)"/>
<path d="M0 0 C1.13643966 3.40931897 0.86747764 4.00335456 -0.4375 7.1875 C-0.86869141 8.26064453 -0.86869141 8.26064453 -1.30859375 9.35546875 C-1.53675781 9.89816406 -1.76492188 10.44085938 -2 11 C-2.33 11 -2.66 11 -3 11 C-3.32613618 6.32538149 -2.70582788 3.83325617 0 0 Z " fill="#0D1F30" transform="translate(451,322)"/>
<path d="M0 0 C0.33 0.99 0.66 1.98 1 3 C-1.97 5.475 -1.97 5.475 -5 8 C-4.45773019 4.20411134 -2.79872437 2.52788007 0 0 Z " fill="#CC3B12" transform="translate(311,297)"/>
<path d="M0 0 C3.25543229 0.34879632 4.01873107 1.02133261 6.25 3.5625 C6.8275 4.366875 7.405 5.17125 8 6 C4.74456771 5.65120368 3.98126893 4.97866739 1.75 2.4375 C1.1725 1.633125 0.595 0.82875 0 0 Z " fill="#C9290A" transform="translate(225,278)"/>
<path d="M0 0 C0.99 0.33 1.98 0.66 3 1 C-0.465 3.97 -0.465 3.97 -4 7 C-4 6.01 -4 5.02 -4 4 C-2.68 3.34 -1.36 2.68 0 2 C0 1.34 0 0.68 0 0 Z " fill="#E32D0D" transform="translate(277,180)"/>
<path d="M0 0 C0.99 0 1.98 0 3 0 C3.103125 0.61875 3.20625 1.2375 3.3125 1.875 C3.87525373 4.36526484 3.87525373 4.36526484 7 6 C6.01 6.33 5.02 6.66 4 7 C2 5.1875 2 5.1875 0 3 C0 2.01 0 1.02 0 0 Z " fill="#ED5A1B" transform="translate(257,354)"/>
<path d="" fill="#000000" transform="translate(0,0)"/>
<path d="" fill="#000000" transform="translate(0,0)"/>
<path d="" fill="#000000" transform="translate(0,0)"/>
<path d="" fill="#000000" transform="translate(0,0)"/>
<path d="" fill="#000000" transform="translate(0,0)"/>
<path d="" fill="#000000" transform="translate(0,0)"/>
<path d="" fill="#000000" transform="translate(0,0)"/>
<path d="" fill="#000000" transform="translate(0,0)"/>
<path d="" fill="#000000" transform="translate(0,0)"/>
<path d="" fill="#000000" transform="translate(0,0)"/>
<path d="" fill="#000000" transform="translate(0,0)"/>
<path d="" fill="#000000" transform="translate(0,0)"/>
<path d="" fill="#000000" transform="translate(0,0)"/>
<path d="" fill="#000000" transform="translate(0,0)"/>
<path d="" fill="#000000" transform="translate(0,0)"/>
<path d="" fill="#000000" transform="translate(0,0)"/>
<path d="" fill="#000000" transform="translate(0,0)"/>
<path d="" fill="#000000" transform="translate(0,0)"/>
<path d="" fill="#000000" transform="translate(0,0)"/>
<path d="" fill="#000000" transform="translate(0,0)"/>
<path d="" fill="#000000" transform="translate(0,0)"/>
<path d="" fill="#000000" transform="translate(0,0)"/>
<path d="" fill="#000000" transform="translate(0,0)"/>
<path d="" fill="#000000" transform="translate(0,0)"/>
<path d="" fill="#000000" transform="translate(0,0)"/>
</svg>
